<svg id="visual" viewBox="0 0 960 300" width="960" height="300" xmlns="http://www.w3.org/2000/svg" xmlns:xlink="http://www.w3.org/1999/xlink" version="1.1"><rect width="960" height="300" fill="#931F1F"></rect><g><g transform="translate(240 224)"><path d="M70.5 -24.9C79.7 5.5 67.5 40.9 43.3 58.1C19.1 75.3 -17.1 74.4 -39.7 57.3C-62.4 40.2 -71.4 7.1 -62.5 -22.9C-53.6 -52.8 -26.8 -79.4 1.9 -80C30.6 -80.7 61.2 -55.3 70.5 -24.9Z" stroke="#F7760E" fill="none" stroke-width="20"></path></g><g transform="translate(785 294)"><path d="M56.8 -15.2C65.8 9.3 59.9 41.8 40.4 56.2C20.8 70.6 -12.4 66.7 -34.5 50C-56.7 33.4 -67.7 3.9 -60 -18.6C-52.4 -41.1 -26.2 -56.7 -1.2 -56.3C23.9 -55.9 47.8 -39.6 56.8 -15.2Z" stroke="#F7760E" fill="none" stroke-width="20"></path></g><g transform="translate(654 112)"><path d="M44.8 -14.7C50.3 2.6 41.9 24.3 25.5 36.4C9.2 48.6 -15 51.2 -31.6 40C-48.3 28.7 -57.5 3.5 -50.9 -15.1C-44.4 -33.7 -22.2 -45.8 -1.3 -45.4C19.6 -44.9 39.2 -32 44.8 -14.7Z" stroke="#F7760E" fill="none" stroke-width="20"></path></g></g></svg>