<svg id="visual" viewBox="0 0 900 600" width="900" height="600" xmlns="http://www.w3.org/2000/svg" xmlns:xlink="http://www.w3.org/1999/xlink" version="1.1"><rect x="0" y="0" width="900" height="600" fill="#fff"></rect><path d="M0 271L13.7 276.5C27.3 282 54.7 293 82 302.3C109.3 311.7 136.7 319.3 163.8 324.7C191 330 218 333 245.2 333.5C272.3 334 299.7 332 327 318C354.3 304 381.7 278 409 263.5C436.3 249 463.7 246 491 257.2C518.3 268.3 545.7 293.7 573 295.7C600.3 297.7 627.7 276.3 654.8 274.5C682 272.7 709 290.3 736.2 299.8C763.3 309.3 790.7 310.7 818 300.3C845.3 290 872.7 268 886.3 257L900 246L900 601L886.3 601C872.7 601 845.3 601 818 601C790.7 601 763.3 601 736.2 601C709 601 682 601 654.8 601C627.7 601 600.3 601 573 601C545.7 601 518.3 601 491 601C463.7 601 436.3 601 409 601C381.7 601 354.3 601 327 601C299.7 601 272.3 601 245.2 601C218 601 191 601 163.8 601C136.7 601 109.3 601 82 601C54.7 601 27.3 601 13.7 601L0 601Z" fill="#ffffff"></path><path d="M0 296L13.7 297C27.3 298 54.7 300 82 313.3C109.3 326.7 136.7 351.3 163.8 352.3C191 353.3 218 330.7 245.2 329.8C272.3 329 299.7 350 327 359.8C354.3 369.7 381.7 368.3 409 358.2C436.3 348 463.7 329 491 314.8C518.3 300.7 545.7 291.3 573 288.8C600.3 286.3 627.7 290.7 654.8 299.3C682 308 709 321 736.2 334.8C763.3 348.7 790.7 363.3 818 367.7C845.3 372 872.7 366 886.3 363L900 360L900 601L886.3 601C872.7 601 845.3 601 818 601C790.7 601 763.3 601 736.2 601C709 601 682 601 654.8 601C627.7 601 600.3 601 573 601C545.7 601 518.3 601 491 601C463.7 601 436.3 601 409 601C381.7 601 354.3 601 327 601C299.7 601 272.3 601 245.2 601C218 601 191 601 163.8 601C136.7 601 109.3 601 82 601C54.7 601 27.3 601 13.7 601L0 601Z" fill="#e7e7e8"></path><path d="M0 391L13.7 379.2C27.3 367.3 54.7 343.7 82 335.7C109.3 327.7 136.7 335.3 163.8 343.2C191 351 218 359 245.2 367.5C272.3 376 299.7 385 327 379.2C354.3 373.3 381.7 352.7 409 353.2C436.3 353.7 463.7 375.3 491 378.3C518.3 381.3 545.7 365.7 573 352.7C600.3 339.7 627.7 329.3 654.8 329.7C682 330 709 341 736.2 344.8C763.3 348.7 790.7 345.3 818 338.2C845.3 331 872.7 320 886.3 314.5L900 309L900 601L886.3 601C872.7 601 845.3 601 818 601C790.7 601 763.3 601 736.2 601C709 601 682 601 654.8 601C627.7 601 600.3 601 573 601C545.7 601 518.3 601 491 601C463.7 601 436.3 601 409 601C381.7 601 354.3 601 327 601C299.7 601 272.3 601 245.2 601C218 601 191 601 163.8 601C136.7 601 109.3 601 82 601C54.7 601 27.3 601 13.7 601L0 601Z" fill="#d0d0d1"></path><path d="M0 417L13.7 417.2C27.3 417.3 54.7 417.7 82 408.7C109.3 399.7 136.7 381.3 163.8 373.7C191 366 218 369 245.2 375.7C272.3 382.3 299.7 392.7 327 394C354.3 395.3 381.7 387.7 409 385.5C436.3 383.3 463.7 386.7 491 384.2C518.3 381.7 545.7 373.3 573 363.5C600.3 353.7 627.7 342.3 654.8 344.5C682 346.7 709 362.3 736.2 365C763.3 367.7 790.7 357.3 818 352.8C845.3 348.3 872.7 349.7 886.3 350.3L900 351L900 601L886.3 601C872.7 601 845.3 601 818 601C790.7 601 763.3 601 736.2 601C709 601 682 601 654.8 601C627.7 601 600.3 601 573 601C545.7 601 518.3 601 491 601C463.7 601 436.3 601 409 601C381.7 601 354.3 601 327 601C299.7 601 272.3 601 245.2 601C218 601 191 601 163.8 601C136.7 601 109.3 601 82 601C54.7 601 27.3 601 13.7 601L0 601Z" fill="#b9b9bb"></path><path d="M0 431L13.7 421.8C27.3 412.7 54.7 394.3 82 389.2C109.3 384 136.7 392 163.8 388.3C191 384.7 218 369.3 245.2 366.7C272.3 364 299.7 374 327 384.8C354.3 395.7 381.7 407.3 409 405.2C436.3 403 463.7 387 491 378.8C518.3 370.7 545.7 370.3 573 372.2C600.3 374 627.7 378 654.8 375.2C682 372.3 709 362.7 736.2 359C763.3 355.3 790.7 357.7 818 365.2C845.3 372.7 872.7 385.3 886.3 391.7L900 398L900 601L886.3 601C872.7 601 845.3 601 818 601C790.7 601 763.3 601 736.2 601C709 601 682 601 654.8 601C627.7 601 600.3 601 573 601C545.7 601 518.3 601 491 601C463.7 601 436.3 601 409 601C381.7 601 354.3 601 327 601C299.7 601 272.3 601 245.2 601C218 601 191 601 163.8 601C136.7 601 109.3 601 82 601C54.7 601 27.3 601 13.7 601L0 601Z" fill="#a3a3a5"></path><path d="M0 394L13.7 401.2C27.3 408.3 54.7 422.7 82 431.7C109.3 440.7 136.7 444.3 163.8 439.8C191 435.3 218 422.7 245.2 418.3C272.3 414 299.7 418 327 416.3C354.3 414.7 381.7 407.3 409 407.2C436.3 407 463.7 414 491 413.2C518.3 412.3 545.7 403.7 573 397.5C600.3 391.3 627.7 387.7 654.8 392.8C682 398 709 412 736.2 414C763.3 416 790.7 406 818 410.7C845.3 415.3 872.7 434.7 886.3 444.3L900 454L900 601L886.3 601C872.7 601 845.3 601 818 601C790.7 601 763.3 601 736.2 601C709 601 682 601 654.8 601C627.7 601 600.3 601 573 601C545.7 601 518.3 601 491 601C463.7 601 436.3 601 409 601C381.7 601 354.3 601 327 601C299.7 601 272.3 601 245.2 601C218 601 191 601 163.8 601C136.7 601 109.3 601 82 601C54.7 601 27.3 601 13.7 601L0 601Z" fill="#8e8e8f"></path><path d="M0 453L13.7 450.2C27.3 447.3 54.7 441.7 82 434.3C109.3 427 136.7 418 163.8 418.3C191 418.7 218 428.3 245.2 435C272.3 441.7 299.7 445.3 327 448C354.3 450.7 381.7 452.3 409 452.8C436.3 453.3 463.7 452.7 491 448.3C518.3 444 545.7 436 573 430.3C600.3 424.7 627.7 421.3 654.8 426.3C682 431.3 709 444.7 736.2 447.5C763.3 450.3 790.7 442.7 818 442C845.3 441.3 872.7 447.7 886.3 450.8L900 454L900 601L886.3 601C872.7 601 845.3 601 818 601C790.7 601 763.3 601 736.2 601C709 601 682 601 654.8 601C627.7 601 600.3 601 573 601C545.7 601 518.3 601 491 601C463.7 601 436.3 601 409 601C381.7 601 354.3 601 327 601C299.7 601 272.3 601 245.2 601C218 601 191 601 163.8 601C136.7 601 109.3 601 82 601C54.7 601 27.3 601 13.7 601L0 601Z" fill="#79797b"></path><path d="M0 501L13.7 490.7C27.3 480.3 54.7 459.7 82 458.3C109.3 457 136.7 475 163.8 483.7C191 492.3 218 491.7 245.2 485C272.3 478.3 299.7 465.7 327 464.2C354.3 462.7 381.7 472.3 409 477.2C436.3 482 463.7 482 491 479.7C518.3 477.3 545.7 472.7 573 468.7C600.3 464.7 627.7 461.3 654.8 462.7C682 464 709 470 736.2 473.2C763.3 476.3 790.7 476.7 818 477.7C845.3 478.7 872.7 480.3 886.3 481.2L900 482L900 601L886.3 601C872.7 601 845.3 601 818 601C790.7 601 763.3 601 736.2 601C709 601 682 601 654.8 601C627.7 601 600.3 601 573 601C545.7 601 518.3 601 491 601C463.7 601 436.3 601 409 601C381.7 601 354.3 601 327 601C299.7 601 272.3 601 245.2 601C218 601 191 601 163.8 601C136.7 601 109.3 601 82 601C54.7 601 27.3 601 13.7 601L0 601Z" fill="#646467"></path><path d="M0 509L13.7 504.3C27.3 499.7 54.7 490.3 82 485.5C109.3 480.7 136.7 480.3 163.8 481.7C191 483 218 486 245.2 491.3C272.3 496.7 299.7 504.3 327 506.2C354.3 508 381.7 504 409 500.5C436.3 497 463.7 494 491 496.7C518.3 499.3 545.7 507.7 573 511.7C600.3 515.7 627.7 515.3 654.8 509.2C682 503 709 491 736.2 484C763.3 477 790.7 475 818 475.7C845.3 476.3 872.7 479.7 886.3 481.3L900 483L900 601L886.3 601C872.7 601 845.3 601 818 601C790.7 601 763.3 601 736.2 601C709 601 682 601 654.8 601C627.7 601 600.3 601 573 601C545.7 601 518.3 601 491 601C463.7 601 436.3 601 409 601C381.7 601 354.3 601 327 601C299.7 601 272.3 601 245.2 601C218 601 191 601 163.8 601C136.7 601 109.3 601 82 601C54.7 601 27.3 601 13.7 601L0 601Z" fill="#515153"></path><path d="M0 513L13.7 512C27.3 511 54.7 509 82 513.2C109.3 517.3 136.7 527.7 163.8 526.2C191 524.7 218 511.3 245.2 507.3C272.3 503.3 299.7 508.7 327 512.8C354.3 517 381.7 520 409 519.5C436.3 519 463.7 515 491 511.7C518.3 508.3 545.7 505.7 573 509.8C600.3 514 627.7 525 654.8 528.2C682 531.3 709 526.7 736.2 523.5C763.3 520.3 790.7 518.7 818 517.5C845.3 516.3 872.7 515.7 886.3 515.3L900 515L900 601L886.3 601C872.7 601 845.3 601 818 601C790.7 601 763.3 601 736.2 601C709 601 682 601 654.8 601C627.7 601 600.3 601 573 601C545.7 601 518.3 601 491 601C463.7 601 436.3 601 409 601C381.7 601 354.3 601 327 601C299.7 601 272.3 601 245.2 601C218 601 191 601 163.8 601C136.7 601 109.3 601 82 601C54.7 601 27.3 601 13.7 601L0 601Z" fill="#3e3e41"></path><path d="M0 559L13.7 555.2C27.3 551.3 54.7 543.7 82 542.2C109.3 540.7 136.7 545.3 163.8 547C191 548.7 218 547.3 245.2 549.2C272.3 551 299.7 556 327 557.8C354.3 559.7 381.7 558.3 409 554.2C436.3 550 463.7 543 491 538.3C518.3 533.7 545.7 531.3 573 533.3C600.3 535.3 627.7 541.7 654.8 546.5C682 551.3 709 554.7 736.2 555.2C763.3 555.7 790.7 553.3 818 551.3C845.3 549.3 872.7 547.7 886.3 546.8L900 546L900 601L886.3 601C872.7 601 845.3 601 818 601C790.7 601 763.3 601 736.2 601C709 601 682 601 654.8 601C627.7 601 600.3 601 573 601C545.7 601 518.3 601 491 601C463.7 601 436.3 601 409 601C381.7 601 354.3 601 327 601C299.7 601 272.3 601 245.2 601C218 601 191 601 163.8 601C136.7 601 109.3 601 82 601C54.7 601 27.3 601 13.7 601L0 601Z" fill="#2c2c2f"></path><path d="M0 569L13.7 569.7C27.3 570.3 54.7 571.7 82 571C109.3 570.3 136.7 567.7 163.8 565.7C191 563.7 218 562.3 245.2 560C272.3 557.7 299.7 554.3 327 556.2C354.3 558 381.7 565 409 570.3C436.3 575.7 463.7 579.3 491 579C518.3 578.7 545.7 574.3 573 573.5C600.3 572.7 627.7 575.3 654.8 576.3C682 577.3 709 576.7 736.2 573.3C763.3 570 790.7 564 818 564.5C845.3 565 872.7 572 886.3 575.5L900 579L900 601L886.3 601C872.7 601 845.3 601 818 601C790.7 601 763.3 601 736.2 601C709 601 682 601 654.8 601C627.7 601 600.3 601 573 601C545.7 601 518.3 601 491 601C463.7 601 436.3 601 409 601C381.7 601 354.3 601 327 601C299.7 601 272.3 601 245.2 601C218 601 191 601 163.8 601C136.7 601 109.3 601 82 601C54.7 601 27.3 601 13.7 601L0 601Z" fill="#1b1b1e"></path></svg>