<svg id="visual" viewBox="0 0 960 300" width="960" height="300" xmlns="http://www.w3.org/2000/svg" xmlns:xlink="http://www.w3.org/1999/xlink" version="1.1"><rect x="0" y="0" width="960" height="300" fill="#1B1B1E"></rect><path d="M0 71L8.5 77.5C17 84 34 97 50.8 87.8C67.7 78.7 84.3 47.3 101.2 32.7C118 18 135 20 151.8 25.3C168.7 30.7 185.3 39.3 202.2 49.2C219 59 236 70 252.8 80C269.7 90 286.3 99 303.2 106.5C320 114 337 120 353.8 113.3C370.7 106.7 387.3 87.3 404.2 85.8C421 84.3 438 100.7 454.8 109.3C471.7 118 488.3 119 505.2 111.7C522 104.3 539 88.7 555.8 77.8C572.7 67 589.3 61 606.2 51.5C623 42 640 29 656.8 36.5C673.7 44 690.3 72 707.2 73.8C724 75.7 741 51.3 757.8 39C774.7 26.7 791.3 26.3 808.2 35.5C825 44.7 842 63.3 858.8 66.2C875.7 69 892.3 56 909.2 51.2C926 46.3 943 49.7 951.5 51.3L960 53L960 301L951.5 301C943 301 926 301 909.2 301C892.3 301 875.7 301 858.8 301C842 301 825 301 808.2 301C791.3 301 774.7 301 757.8 301C741 301 724 301 707.2 301C690.3 301 673.7 301 656.8 301C640 301 623 301 606.2 301C589.3 301 572.7 301 555.8 301C539 301 522 301 505.2 301C488.3 301 471.7 301 454.8 301C438 301 421 301 404.2 301C387.3 301 370.7 301 353.8 301C337 301 320 301 303.2 301C286.3 301 269.7 301 252.8 301C236 301 219 301 202.2 301C185.3 301 168.7 301 151.8 301C135 301 118 301 101.2 301C84.3 301 67.7 301 50.8 301C34 301 17 301 8.5 301L0 301Z" fill="#e74c3c"></path><path d="M0 105L8.5 104.7C17 104.3 34 103.7 50.8 98.2C67.7 92.7 84.3 82.3 101.2 88.7C118 95 135 118 151.8 126.8C168.7 135.7 185.3 130.3 202.2 131.7C219 133 236 141 252.8 138.5C269.7 136 286.3 123 303.2 108.8C320 94.7 337 79.3 353.8 88.5C370.7 97.7 387.3 131.3 404.2 142.7C421 154 438 143 454.8 136.5C471.7 130 488.3 128 505.2 124.2C522 120.3 539 114.7 555.8 114.8C572.7 115 589.3 121 606.2 112.3C623 103.7 640 80.3 656.8 79.7C673.7 79 690.3 101 707.2 101.3C724 101.7 741 80.3 757.8 77.8C774.7 75.3 791.3 91.7 808.2 98.5C825 105.3 842 102.7 858.8 108.8C875.7 115 892.3 130 909.2 137.7C926 145.3 943 145.7 951.5 145.8L960 146L960 301L951.5 301C943 301 926 301 909.2 301C892.3 301 875.7 301 858.8 301C842 301 825 301 808.2 301C791.3 301 774.7 301 757.8 301C741 301 724 301 707.2 301C690.3 301 673.7 301 656.8 301C640 301 623 301 606.2 301C589.3 301 572.7 301 555.8 301C539 301 522 301 505.2 301C488.3 301 471.7 301 454.8 301C438 301 421 301 404.2 301C387.3 301 370.7 301 353.8 301C337 301 320 301 303.2 301C286.3 301 269.7 301 252.8 301C236 301 219 301 202.2 301C185.3 301 168.7 301 151.8 301C135 301 118 301 101.2 301C84.3 301 67.7 301 50.8 301C34 301 17 301 8.5 301L0 301Z" fill="#c23856"></path><path d="M0 128L8.5 138.7C17 149.3 34 170.7 50.8 166.8C67.7 163 84.3 134 101.2 132.2C118 130.3 135 155.7 151.8 165.2C168.7 174.7 185.3 168.3 202.2 154.8C219 141.3 236 120.7 252.8 116.7C269.7 112.7 286.3 125.3 303.2 137.5C320 149.7 337 161.3 353.8 156.7C370.7 152 387.3 131 404.2 121.2C421 111.3 438 112.7 454.8 122.5C471.7 132.3 488.3 150.7 505.2 156.3C522 162 539 155 555.8 155.7C572.7 156.3 589.3 164.7 606.2 167.8C623 171 640 169 656.8 171.8C673.7 174.7 690.3 182.3 707.2 179.3C724 176.3 741 162.7 757.8 163.2C774.7 163.7 791.3 178.3 808.2 184.7C825 191 842 189 858.8 185C875.7 181 892.3 175 909.2 169C926 163 943 157 951.5 154L960 151L960 301L951.5 301C943 301 926 301 909.2 301C892.3 301 875.7 301 858.8 301C842 301 825 301 808.2 301C791.3 301 774.7 301 757.8 301C741 301 724 301 707.2 301C690.3 301 673.7 301 656.8 301C640 301 623 301 606.2 301C589.3 301 572.7 301 555.8 301C539 301 522 301 505.2 301C488.3 301 471.7 301 454.8 301C438 301 421 301 404.2 301C387.3 301 370.7 301 353.8 301C337 301 320 301 303.2 301C286.3 301 269.7 301 252.8 301C236 301 219 301 202.2 301C185.3 301 168.7 301 151.8 301C135 301 118 301 101.2 301C84.3 301 67.7 301 50.8 301C34 301 17 301 8.5 301L0 301Z" fill="#93345f"></path><path d="M0 220L8.5 220.5C17 221 34 222 50.8 209.3C67.7 196.7 84.3 170.3 101.2 160.5C118 150.7 135 157.3 151.8 167.2C168.7 177 185.3 190 202.2 187.3C219 184.7 236 166.3 252.8 156.8C269.7 147.3 286.3 146.7 303.2 157.3C320 168 337 190 353.8 196.7C370.7 203.3 387.3 194.7 404.2 182.5C421 170.3 438 154.7 454.8 152.2C471.7 149.7 488.3 160.3 505.2 170.5C522 180.7 539 190.3 555.8 187.5C572.7 184.7 589.3 169.3 606.2 171.7C623 174 640 194 656.8 193.3C673.7 192.7 690.3 171.3 707.2 167C724 162.7 741 175.3 757.8 176.8C774.7 178.3 791.3 168.7 808.2 165C825 161.3 842 163.7 858.8 161.2C875.7 158.7 892.3 151.3 909.2 153.2C926 155 943 166 951.5 171.5L960 177L960 301L951.5 301C943 301 926 301 909.2 301C892.3 301 875.7 301 858.8 301C842 301 825 301 808.2 301C791.3 301 774.7 301 757.8 301C741 301 724 301 707.2 301C690.3 301 673.7 301 656.8 301C640 301 623 301 606.2 301C589.3 301 572.7 301 555.8 301C539 301 522 301 505.2 301C488.3 301 471.7 301 454.8 301C438 301 421 301 404.2 301C387.3 301 370.7 301 353.8 301C337 301 320 301 303.2 301C286.3 301 269.7 301 252.8 301C236 301 219 301 202.2 301C185.3 301 168.7 301 151.8 301C135 301 118 301 101.2 301C84.3 301 67.7 301 50.8 301C34 301 17 301 8.5 301L0 301Z" fill="#603157"></path><path d="M0 238L8.5 230.7C17 223.3 34 208.7 50.8 210.3C67.7 212 84.3 230 101.2 233.5C118 237 135 226 151.8 226.5C168.7 227 185.3 239 202.2 237.2C219 235.3 236 219.7 252.8 219C269.7 218.3 286.3 232.7 303.2 236.2C320 239.7 337 232.3 353.8 231.8C370.7 231.3 387.3 237.7 404.2 234C421 230.3 438 216.7 454.8 215C471.7 213.3 488.3 223.7 505.2 224.7C522 225.7 539 217.3 555.8 219C572.7 220.7 589.3 232.3 606.2 239.5C623 246.7 640 249.3 656.8 241C673.7 232.7 690.3 213.3 707.2 204.3C724 195.3 741 196.7 757.8 200C774.7 203.3 791.3 208.7 808.2 216.2C825 223.7 842 233.3 858.8 232.3C875.7 231.3 892.3 219.7 909.2 222.2C926 224.7 943 241.3 951.5 249.7L960 258L960 301L951.5 301C943 301 926 301 909.2 301C892.3 301 875.7 301 858.8 301C842 301 825 301 808.2 301C791.3 301 774.7 301 757.8 301C741 301 724 301 707.2 301C690.3 301 673.7 301 656.8 301C640 301 623 301 606.2 301C589.3 301 572.7 301 555.8 301C539 301 522 301 505.2 301C488.3 301 471.7 301 454.8 301C438 301 421 301 404.2 301C387.3 301 370.7 301 353.8 301C337 301 320 301 303.2 301C286.3 301 269.7 301 252.8 301C236 301 219 301 202.2 301C185.3 301 168.7 301 151.8 301C135 301 118 301 101.2 301C84.3 301 67.7 301 50.8 301C34 301 17 301 8.5 301L0 301Z" fill="#35293f"></path><path d="M0 262L8.5 259.8C17 257.7 34 253.3 50.8 254C67.7 254.7 84.3 260.3 101.2 264.3C118 268.3 135 270.7 151.8 264.2C168.7 257.7 185.3 242.3 202.2 238.2C219 234 236 241 252.8 247.7C269.7 254.3 286.3 260.7 303.2 259.8C320 259 337 251 353.8 250.5C370.7 250 387.3 257 404.2 256.2C421 255.3 438 246.7 454.8 243.8C471.7 241 488.3 244 505.2 248.8C522 253.7 539 260.3 555.8 266.5C572.7 272.7 589.3 278.3 606.2 272.3C623 266.3 640 248.7 656.8 249.2C673.7 249.7 690.3 268.3 707.2 274.3C724 280.3 741 273.7 757.8 273C774.7 272.3 791.3 277.7 808.2 277.3C825 277 842 271 858.8 261.3C875.7 251.7 892.3 238.3 909.2 232.7C926 227 943 229 951.5 230L960 231L960 301L951.5 301C943 301 926 301 909.2 301C892.3 301 875.7 301 858.8 301C842 301 825 301 808.2 301C791.3 301 774.7 301 757.8 301C741 301 724 301 707.2 301C690.3 301 673.7 301 656.8 301C640 301 623 301 606.2 301C589.3 301 572.7 301 555.8 301C539 301 522 301 505.2 301C488.3 301 471.7 301 454.8 301C438 301 421 301 404.2 301C387.3 301 370.7 301 353.8 301C337 301 320 301 303.2 301C286.3 301 269.7 301 252.8 301C236 301 219 301 202.2 301C185.3 301 168.7 301 151.8 301C135 301 118 301 101.2 301C84.3 301 67.7 301 50.8 301C34 301 17 301 8.5 301L0 301Z" fill="#1b1b1e"></path></svg>