<svg id="visual" viewBox="0 0 900 400" width="900" height="400" xmlns="http://www.w3.org/2000/svg" xmlns:xlink="http://www.w3.org/1999/xlink" version="1.1"><rect x="0" y="0" width="900" height="400" fill="#A7233A"></rect><path d="M0 208L8.3 202.8C16.7 197.7 33.3 187.3 50 178.5C66.7 169.7 83.3 162.3 100 170C116.7 177.7 133.3 200.3 150 205.5C166.7 210.7 183.3 198.3 200 188.8C216.7 179.3 233.3 172.7 250 177.8C266.7 183 283.3 200 300 202C316.7 204 333.3 191 350 182.5C366.7 174 383.3 170 400 168.3C416.7 166.7 433.3 167.3 450 176.8C466.7 186.3 483.3 204.7 500 202C516.7 199.3 533.3 175.7 550 164.2C566.7 152.7 583.3 153.3 600 153.5C616.7 153.7 633.3 153.3 650 153C666.7 152.7 683.3 152.3 700 156.2C716.7 160 733.3 168 750 167.7C766.7 167.3 783.3 158.7 800 163.8C816.7 169 833.3 188 850 197.8C866.7 207.7 883.3 208.3 891.7 208.7L900 209L900 401L891.7 401C883.3 401 866.7 401 850 401C833.3 401 816.7 401 800 401C783.3 401 766.7 401 750 401C733.3 401 716.7 401 700 401C683.3 401 666.7 401 650 401C633.3 401 616.7 401 600 401C583.3 401 566.7 401 550 401C533.3 401 516.7 401 500 401C483.3 401 466.7 401 450 401C433.3 401 416.7 401 400 401C383.3 401 366.7 401 350 401C333.3 401 316.7 401 300 401C283.3 401 266.7 401 250 401C233.3 401 216.7 401 200 401C183.3 401 166.7 401 150 401C133.3 401 116.7 401 100 401C83.3 401 66.7 401 50 401C33.3 401 16.7 401 8.3 401L0 401Z" fill="#a7233a"></path><path d="M0 227L8.3 225.3C16.7 223.7 33.3 220.3 50 217C66.7 213.7 83.3 210.3 100 209.5C116.7 208.7 133.3 210.3 150 211.8C166.7 213.3 183.3 214.7 200 220.2C216.7 225.7 233.3 235.3 250 235.3C266.7 235.3 283.3 225.7 300 218.5C316.7 211.3 333.3 206.7 350 204.7C366.7 202.7 383.3 203.3 400 199.8C416.7 196.3 433.3 188.7 450 185.2C466.7 181.7 483.3 182.3 500 182.8C516.7 183.3 533.3 183.7 550 188C566.7 192.3 583.3 200.7 600 208.8C616.7 217 633.3 225 650 229.7C666.7 234.3 683.3 235.7 700 229.5C716.7 223.3 733.3 209.7 750 207.8C766.7 206 783.3 216 800 221.3C816.7 226.7 833.3 227.3 850 224C866.7 220.7 883.3 213.3 891.7 209.7L900 206L900 401L891.7 401C883.3 401 866.7 401 850 401C833.3 401 816.7 401 800 401C783.3 401 766.7 401 750 401C733.3 401 716.7 401 700 401C683.3 401 666.7 401 650 401C633.3 401 616.7 401 600 401C583.3 401 566.7 401 550 401C533.3 401 516.7 401 500 401C483.3 401 466.7 401 450 401C433.3 401 416.7 401 400 401C383.3 401 366.7 401 350 401C333.3 401 316.7 401 300 401C283.3 401 266.7 401 250 401C233.3 401 216.7 401 200 401C183.3 401 166.7 401 150 401C133.3 401 116.7 401 100 401C83.3 401 66.7 401 50 401C33.3 401 16.7 401 8.3 401L0 401Z" fill="#982144"></path><path d="M0 214L8.3 215.8C16.7 217.7 33.3 221.3 50 229C66.7 236.7 83.3 248.3 100 247.2C116.7 246 133.3 232 150 232.2C166.7 232.3 183.3 246.7 200 245.7C216.7 244.7 233.3 228.3 250 224.7C266.7 221 283.3 230 300 236.8C316.7 243.7 333.3 248.3 350 251.7C366.7 255 383.3 257 400 252.5C416.7 248 433.3 237 450 237.3C466.7 237.7 483.3 249.3 500 252.7C516.7 256 533.3 251 550 248C566.7 245 583.3 244 600 241C616.7 238 633.3 233 650 231.7C666.7 230.3 683.3 232.7 700 227.5C716.7 222.3 733.3 209.7 750 205.8C766.7 202 783.3 207 800 210.8C816.7 214.7 833.3 217.3 850 216.8C866.7 216.3 883.3 212.7 891.7 210.8L900 209L900 401L891.7 401C883.3 401 866.7 401 850 401C833.3 401 816.7 401 800 401C783.3 401 766.7 401 750 401C733.3 401 716.7 401 700 401C683.3 401 666.7 401 650 401C633.3 401 616.7 401 600 401C583.3 401 566.7 401 550 401C533.3 401 516.7 401 500 401C483.3 401 466.7 401 450 401C433.3 401 416.7 401 400 401C383.3 401 366.7 401 350 401C333.3 401 316.7 401 300 401C283.3 401 266.7 401 250 401C233.3 401 216.7 401 200 401C183.3 401 166.7 401 150 401C133.3 401 116.7 401 100 401C83.3 401 66.7 401 50 401C33.3 401 16.7 401 8.3 401L0 401Z" fill="#86224a"></path><path d="M0 260L8.3 256.3C16.7 252.7 33.3 245.3 50 241.7C66.7 238 83.3 238 100 237.8C116.7 237.7 133.3 237.3 150 234.7C166.7 232 183.3 227 200 226.3C216.7 225.7 233.3 229.3 250 231.7C266.7 234 283.3 235 300 239.3C316.7 243.7 333.3 251.3 350 251.2C366.7 251 383.3 243 400 241.7C416.7 240.3 433.3 245.7 450 249.3C466.7 253 483.3 255 500 251.8C516.7 248.7 533.3 240.3 550 234.7C566.7 229 583.3 226 600 225.8C616.7 225.7 633.3 228.3 650 228C666.7 227.7 683.3 224.3 700 232.2C716.7 240 733.3 259 750 258.5C766.7 258 783.3 238 800 230.5C816.7 223 833.3 228 850 228.2C866.7 228.3 883.3 223.7 891.7 221.3L900 219L900 401L891.7 401C883.3 401 866.7 401 850 401C833.3 401 816.7 401 800 401C783.3 401 766.7 401 750 401C733.3 401 716.7 401 700 401C683.3 401 666.7 401 650 401C633.3 401 616.7 401 600 401C583.3 401 566.7 401 550 401C533.3 401 516.7 401 500 401C483.3 401 466.7 401 450 401C433.3 401 416.7 401 400 401C383.3 401 366.7 401 350 401C333.3 401 316.7 401 300 401C283.3 401 266.7 401 250 401C233.3 401 216.7 401 200 401C183.3 401 166.7 401 150 401C133.3 401 116.7 401 100 401C83.3 401 66.7 401 50 401C33.3 401 16.7 401 8.3 401L0 401Z" fill="#74254d"></path><path d="M0 251L8.3 250C16.7 249 33.3 247 50 245.8C66.7 244.7 83.3 244.3 100 252C116.7 259.7 133.3 275.3 150 279.8C166.7 284.3 183.3 277.7 200 275.8C216.7 274 233.3 277 250 274.8C266.7 272.7 283.3 265.3 300 266.2C316.7 267 333.3 276 350 278.3C366.7 280.7 383.3 276.3 400 271.5C416.7 266.7 433.3 261.3 450 262.5C466.7 263.7 483.3 271.3 500 268.8C516.7 266.3 533.3 253.7 550 249.7C566.7 245.7 583.3 250.3 600 258.3C616.7 266.3 633.3 277.7 650 276.8C666.7 276 683.3 263 700 256.5C716.7 250 733.3 250 750 250.2C766.7 250.3 783.3 250.7 800 250.5C816.7 250.3 833.3 249.7 850 253.2C866.7 256.7 883.3 264.3 891.7 268.2L900 272L900 401L891.7 401C883.3 401 866.7 401 850 401C833.3 401 816.7 401 800 401C783.3 401 766.7 401 750 401C733.3 401 716.7 401 700 401C683.3 401 666.7 401 650 401C633.3 401 616.7 401 600 401C583.3 401 566.7 401 550 401C533.3 401 516.7 401 500 401C483.3 401 466.7 401 450 401C433.3 401 416.7 401 400 401C383.3 401 366.7 401 350 401C333.3 401 316.7 401 300 401C283.3 401 266.7 401 250 401C233.3 401 216.7 401 200 401C183.3 401 166.7 401 150 401C133.3 401 116.7 401 100 401C83.3 401 66.7 401 50 401C33.3 401 16.7 401 8.3 401L0 401Z" fill="#60274d"></path><path d="M0 263L8.3 270.2C16.7 277.3 33.3 291.7 50 292C66.7 292.3 83.3 278.7 100 273.7C116.7 268.7 133.3 272.3 150 277.7C166.7 283 183.3 290 200 291C216.7 292 233.3 287 250 288.7C266.7 290.3 283.3 298.7 300 301.5C316.7 304.3 333.3 301.7 350 295.7C366.7 289.7 383.3 280.3 400 278.5C416.7 276.7 433.3 282.3 450 285.5C466.7 288.7 483.3 289.3 500 286.5C516.7 283.7 533.3 277.3 550 279.3C566.7 281.3 583.3 291.7 600 293.2C616.7 294.7 633.3 287.3 650 289C666.7 290.7 683.3 301.3 700 300.7C716.7 300 733.3 288 750 285.7C766.7 283.3 783.3 290.7 800 294.5C816.7 298.3 833.3 298.7 850 297.2C866.7 295.7 883.3 292.3 891.7 290.7L900 289L900 401L891.7 401C883.3 401 866.7 401 850 401C833.3 401 816.7 401 800 401C783.3 401 766.7 401 750 401C733.3 401 716.7 401 700 401C683.3 401 666.7 401 650 401C633.3 401 616.7 401 600 401C583.3 401 566.7 401 550 401C533.3 401 516.7 401 500 401C483.3 401 466.7 401 450 401C433.3 401 416.7 401 400 401C383.3 401 366.7 401 350 401C333.3 401 316.7 401 300 401C283.3 401 266.7 401 250 401C233.3 401 216.7 401 200 401C183.3 401 166.7 401 150 401C133.3 401 116.7 401 100 401C83.3 401 66.7 401 50 401C33.3 401 16.7 401 8.3 401L0 401Z" fill="#4e2749"></path><path d="M0 321L8.3 316.3C16.7 311.7 33.3 302.3 50 297.2C66.7 292 83.3 291 100 294.7C116.7 298.3 133.3 306.7 150 311.7C166.7 316.7 183.3 318.3 200 316.8C216.7 315.3 233.3 310.7 250 311.3C266.7 312 283.3 318 300 317.5C316.7 317 333.3 310 350 310.8C366.7 311.7 383.3 320.3 400 323.8C416.7 327.3 433.3 325.7 450 319C466.7 312.3 483.3 300.7 500 294.8C516.7 289 533.3 289 550 290.7C566.7 292.3 583.3 295.7 600 301.8C616.7 308 633.3 317 650 321.2C666.7 325.3 683.3 324.7 700 324.3C716.7 324 733.3 324 750 322.7C766.7 321.3 783.3 318.7 800 316.5C816.7 314.3 833.3 312.7 850 310.8C866.7 309 883.3 307 891.7 306L900 305L900 401L891.7 401C883.3 401 866.7 401 850 401C833.3 401 816.7 401 800 401C783.3 401 766.7 401 750 401C733.3 401 716.7 401 700 401C683.3 401 666.7 401 650 401C633.3 401 616.7 401 600 401C583.3 401 566.7 401 550 401C533.3 401 516.7 401 500 401C483.3 401 466.7 401 450 401C433.3 401 416.7 401 400 401C383.3 401 366.7 401 350 401C333.3 401 316.7 401 300 401C283.3 401 266.7 401 250 401C233.3 401 216.7 401 200 401C183.3 401 166.7 401 150 401C133.3 401 116.7 401 100 401C83.3 401 66.7 401 50 401C33.3 401 16.7 401 8.3 401L0 401Z" fill="#3c2641"></path><path d="M0 341L8.3 336.3C16.7 331.7 33.3 322.3 50 319.7C66.7 317 83.3 321 100 325.2C116.7 329.3 133.3 333.7 150 334.5C166.7 335.3 183.3 332.7 200 330.3C216.7 328 233.3 326 250 324.5C266.7 323 283.3 322 300 324.3C316.7 326.7 333.3 332.3 350 334C366.7 335.7 383.3 333.3 400 331.5C416.7 329.7 433.3 328.3 450 325.3C466.7 322.3 483.3 317.7 500 315.3C516.7 313 533.3 313 550 313.2C566.7 313.3 583.3 313.7 600 314.8C616.7 316 633.3 318 650 318.8C666.7 319.7 683.3 319.3 700 321.2C716.7 323 733.3 327 750 326.8C766.7 326.7 783.3 322.3 800 324.5C816.7 326.7 833.3 335.3 850 335.7C866.7 336 883.3 328 891.7 324L900 320L900 401L891.7 401C883.3 401 866.7 401 850 401C833.3 401 816.7 401 800 401C783.3 401 766.7 401 750 401C733.3 401 716.7 401 700 401C683.3 401 666.7 401 650 401C633.3 401 616.7 401 600 401C583.3 401 566.7 401 550 401C533.3 401 516.7 401 500 401C483.3 401 466.7 401 450 401C433.3 401 416.7 401 400 401C383.3 401 366.7 401 350 401C333.3 401 316.7 401 300 401C283.3 401 266.7 401 250 401C233.3 401 216.7 401 200 401C183.3 401 166.7 401 150 401C133.3 401 116.7 401 100 401C83.3 401 66.7 401 50 401C33.3 401 16.7 401 8.3 401L0 401Z" fill="#2e2437"></path><path d="M0 364L8.3 363.5C16.7 363 33.3 362 50 360.7C66.7 359.3 83.3 357.7 100 355.2C116.7 352.7 133.3 349.3 150 349.2C166.7 349 183.3 352 200 352C216.7 352 233.3 349 250 349.8C266.7 350.7 283.3 355.3 300 354.8C316.7 354.3 333.3 348.7 350 346.3C366.7 344 383.3 345 400 347.5C416.7 350 433.3 354 450 356.2C466.7 358.3 483.3 358.7 500 355.7C516.7 352.7 533.3 346.3 550 345.5C566.7 344.7 583.3 349.3 600 353.5C616.7 357.7 633.3 361.3 650 359.3C666.7 357.3 683.3 349.7 700 347.8C716.7 346 733.3 350 750 353.2C766.7 356.3 783.3 358.7 800 355.5C816.7 352.3 833.3 343.7 850 341.7C866.7 339.7 883.3 344.3 891.7 346.7L900 349L900 401L891.7 401C883.3 401 866.7 401 850 401C833.3 401 816.7 401 800 401C783.3 401 766.7 401 750 401C733.3 401 716.7 401 700 401C683.3 401 666.7 401 650 401C633.3 401 616.7 401 600 401C583.3 401 566.7 401 550 401C533.3 401 516.7 401 500 401C483.3 401 466.7 401 450 401C433.3 401 416.7 401 400 401C383.3 401 366.7 401 350 401C333.3 401 316.7 401 300 401C283.3 401 266.7 401 250 401C233.3 401 216.7 401 200 401C183.3 401 166.7 401 150 401C133.3 401 116.7 401 100 401C83.3 401 66.7 401 50 401C33.3 401 16.7 401 8.3 401L0 401Z" fill="#23202b"></path><path d="M0 375L8.3 375.8C16.7 376.7 33.3 378.3 50 378.5C66.7 378.7 83.3 377.3 100 377C116.7 376.7 133.3 377.3 150 377.3C166.7 377.3 183.3 376.7 200 376.3C216.7 376 233.3 376 250 375.5C266.7 375 283.3 374 300 374.8C316.7 375.7 333.3 378.3 350 378.3C366.7 378.3 383.3 375.7 400 372.3C416.7 369 433.3 365 450 365.3C466.7 365.7 483.3 370.3 500 372.7C516.7 375 533.3 375 550 375.8C566.7 376.7 583.3 378.3 600 377C616.7 375.7 633.3 371.3 650 370C666.7 368.7 683.3 370.3 700 371.5C716.7 372.7 733.3 373.3 750 373.5C766.7 373.7 783.3 373.3 800 374.3C816.7 375.3 833.3 377.7 850 375.5C866.7 373.3 883.3 366.7 891.7 363.3L900 360L900 401L891.7 401C883.3 401 866.7 401 850 401C833.3 401 816.7 401 800 401C783.3 401 766.7 401 750 401C733.3 401 716.7 401 700 401C683.3 401 666.7 401 650 401C633.3 401 616.7 401 600 401C583.3 401 566.7 401 550 401C533.3 401 516.7 401 500 401C483.3 401 466.7 401 450 401C433.3 401 416.7 401 400 401C383.3 401 366.7 401 350 401C333.3 401 316.7 401 300 401C283.3 401 266.7 401 250 401C233.3 401 216.7 401 200 401C183.3 401 166.7 401 150 401C133.3 401 116.7 401 100 401C83.3 401 66.7 401 50 401C33.3 401 16.7 401 8.3 401L0 401Z" fill="#1b1b1e"></path></svg>