<svg id="visual" viewBox="0 0 900 450" width="900" height="450" xmlns="http://www.w3.org/2000/svg" xmlns:xlink="http://www.w3.org/1999/xlink" version="1.1"><rect x="0" y="0" width="900" height="450" fill="#fff"></rect><path d="M0 203L13.7 207.2C27.3 211.3 54.7 219.7 82 226.7C109.3 233.7 136.7 239.3 163.8 243.3C191 247.3 218 249.7 245.2 250C272.3 250.3 299.7 248.7 327 238.2C354.3 227.7 381.7 208.3 409 197.5C436.3 186.7 463.7 184.3 491 192.7C518.3 201 545.7 220 573 221.5C600.3 223 627.7 207 654.8 205.7C682 204.3 709 217.7 736.2 224.8C763.3 232 790.7 233 818 225.2C845.3 217.3 872.7 200.7 886.3 192.3L900 184L900 451L886.3 451C872.7 451 845.3 451 818 451C790.7 451 763.3 451 736.2 451C709 451 682 451 654.8 451C627.7 451 600.3 451 573 451C545.7 451 518.3 451 491 451C463.7 451 436.3 451 409 451C381.7 451 354.3 451 327 451C299.7 451 272.3 451 245.2 451C218 451 191 451 163.8 451C136.7 451 109.3 451 82 451C54.7 451 27.3 451 13.7 451L0 451Z" fill="#ffffff"></path><path d="M0 222L13.7 222.7C27.3 223.3 54.7 224.7 82 234.7C109.3 244.7 136.7 263.3 163.8 264.2C191 265 218 248 245.2 247.3C272.3 246.7 299.7 262.3 327 269.7C354.3 277 381.7 276 409 268.3C436.3 260.7 463.7 246.3 491 235.7C518.3 225 545.7 218 573 216.2C600.3 214.3 627.7 217.7 654.8 224.2C682 230.7 709 240.3 736.2 250.7C763.3 261 790.7 272 818 275.3C845.3 278.7 872.7 274.3 886.3 272.2L900 270L900 451L886.3 451C872.7 451 845.3 451 818 451C790.7 451 763.3 451 736.2 451C709 451 682 451 654.8 451C627.7 451 600.3 451 573 451C545.7 451 518.3 451 491 451C463.7 451 436.3 451 409 451C381.7 451 354.3 451 327 451C299.7 451 272.3 451 245.2 451C218 451 191 451 163.8 451C136.7 451 109.3 451 82 451C54.7 451 27.3 451 13.7 451L0 451Z" fill="#e7e7e8"></path><path d="M0 293L13.7 284.2C27.3 275.3 54.7 257.7 82 251.7C109.3 245.7 136.7 251.3 163.8 257.2C191 263 218 269 245.2 275.3C272.3 281.7 299.7 288.3 327 283.8C354.3 279.3 381.7 263.7 409 264.2C436.3 264.7 463.7 281.3 491 283.7C518.3 286 545.7 274 573 264.2C600.3 254.3 627.7 246.7 654.8 247C682 247.3 709 255.7 736.2 258.5C763.3 261.3 790.7 258.7 818 253.2C845.3 247.7 872.7 239.3 886.3 235.2L900 231L900 451L886.3 451C872.7 451 845.3 451 818 451C790.7 451 763.3 451 736.2 451C709 451 682 451 654.8 451C627.7 451 600.3 451 573 451C545.7 451 518.3 451 491 451C463.7 451 436.3 451 409 451C381.7 451 354.3 451 327 451C299.7 451 272.3 451 245.2 451C218 451 191 451 163.8 451C136.7 451 109.3 451 82 451C54.7 451 27.3 451 13.7 451L0 451Z" fill="#d0d0d1"></path><path d="M0 312L13.7 312.2C27.3 312.3 54.7 312.7 82 306C109.3 299.3 136.7 285.7 163.8 280C191 274.3 218 276.7 245.2 281.7C272.3 286.7 299.7 294.3 327 295.3C354.3 296.3 381.7 290.7 409 289C436.3 287.3 463.7 289.7 491 287.8C518.3 286 545.7 280 573 272.7C600.3 265.3 627.7 256.7 654.8 258.3C682 260 709 272 736.2 274C763.3 276 790.7 268 818 264.5C845.3 261 872.7 262 886.3 262.5L900 263L900 451L886.3 451C872.7 451 845.3 451 818 451C790.7 451 763.3 451 736.2 451C709 451 682 451 654.8 451C627.7 451 600.3 451 573 451C545.7 451 518.3 451 491 451C463.7 451 436.3 451 409 451C381.7 451 354.3 451 327 451C299.7 451 272.3 451 245.2 451C218 451 191 451 163.8 451C136.7 451 109.3 451 82 451C54.7 451 27.3 451 13.7 451L0 451Z" fill="#b9b9bb"></path><path d="M0 323L13.7 316C27.3 309 54.7 295 82 291.2C109.3 287.3 136.7 293.7 163.8 291C191 288.3 218 276.7 245.2 274.7C272.3 272.7 299.7 280.3 327 288.5C354.3 296.7 381.7 305.3 409 303.7C436.3 302 463.7 290 491 283.8C518.3 277.7 545.7 277.3 573 278.7C600.3 280 627.7 283 654.8 280.8C682 278.7 709 271.3 736.2 268.5C763.3 265.7 790.7 267.3 818 273C845.3 278.7 872.7 288.3 886.3 293.2L900 298L900 451L886.3 451C872.7 451 845.3 451 818 451C790.7 451 763.3 451 736.2 451C709 451 682 451 654.8 451C627.7 451 600.3 451 573 451C545.7 451 518.3 451 491 451C463.7 451 436.3 451 409 451C381.7 451 354.3 451 327 451C299.7 451 272.3 451 245.2 451C218 451 191 451 163.8 451C136.7 451 109.3 451 82 451C54.7 451 27.3 451 13.7 451L0 451Z" fill="#a3a3a5"></path><path d="M0 295L13.7 300.3C27.3 305.7 54.7 316.3 82 323C109.3 329.7 136.7 332.3 163.8 329C191 325.7 218 316.3 245.2 313.2C272.3 310 299.7 313 327 311.8C354.3 310.7 381.7 305.3 409 305.2C436.3 305 463.7 310 491 309.3C518.3 308.7 545.7 302.3 573 297.8C600.3 293.3 627.7 290.7 654.8 294.5C682 298.3 709 308.7 736.2 310.2C763.3 311.7 790.7 304.3 818 308C845.3 311.7 872.7 326.3 886.3 333.7L900 341L900 451L886.3 451C872.7 451 845.3 451 818 451C790.7 451 763.3 451 736.2 451C709 451 682 451 654.8 451C627.7 451 600.3 451 573 451C545.7 451 518.3 451 491 451C463.7 451 436.3 451 409 451C381.7 451 354.3 451 327 451C299.7 451 272.3 451 245.2 451C218 451 191 451 163.8 451C136.7 451 109.3 451 82 451C54.7 451 27.3 451 13.7 451L0 451Z" fill="#8e8e8f"></path><path d="M0 340L13.7 337.7C27.3 335.3 54.7 330.7 82 325.2C109.3 319.7 136.7 313.3 163.8 313.7C191 314 218 321 245.2 325.8C272.3 330.7 299.7 333.3 327 335.3C354.3 337.3 381.7 338.7 409 339.2C436.3 339.7 463.7 339.3 491 336.2C518.3 333 545.7 327 573 322.7C600.3 318.3 627.7 315.7 654.8 319.3C682 323 709 333 736.2 335.2C763.3 337.3 790.7 331.7 818 331.2C845.3 330.7 872.7 335.3 886.3 337.7L900 340L900 451L886.3 451C872.7 451 845.3 451 818 451C790.7 451 763.3 451 736.2 451C709 451 682 451 654.8 451C627.7 451 600.3 451 573 451C545.7 451 518.3 451 491 451C463.7 451 436.3 451 409 451C381.7 451 354.3 451 327 451C299.7 451 272.3 451 245.2 451C218 451 191 451 163.8 451C136.7 451 109.3 451 82 451C54.7 451 27.3 451 13.7 451L0 451Z" fill="#79797b"></path><path d="M0 376L13.7 368.2C27.3 360.3 54.7 344.7 82 343.5C109.3 342.3 136.7 355.7 163.8 362.2C191 368.7 218 368.3 245.2 363.3C272.3 358.3 299.7 348.7 327 347.5C354.3 346.3 381.7 353.7 409 357.3C436.3 361 463.7 361 491 359.3C518.3 357.7 545.7 354.3 573 351.3C600.3 348.3 627.7 345.7 654.8 346.7C682 347.7 709 352.3 736.2 354.7C763.3 357 790.7 357 818 357.7C845.3 358.3 872.7 359.7 886.3 360.3L900 361L900 451L886.3 451C872.7 451 845.3 451 818 451C790.7 451 763.3 451 736.2 451C709 451 682 451 654.8 451C627.7 451 600.3 451 573 451C545.7 451 518.3 451 491 451C463.7 451 436.3 451 409 451C381.7 451 354.3 451 327 451C299.7 451 272.3 451 245.2 451C218 451 191 451 163.8 451C136.7 451 109.3 451 82 451C54.7 451 27.3 451 13.7 451L0 451Z" fill="#646467"></path><path d="M0 382L13.7 378.3C27.3 374.7 54.7 367.3 82 363.7C109.3 360 136.7 360 163.8 361.2C191 362.3 218 364.7 245.2 368.5C272.3 372.3 299.7 377.7 327 379C354.3 380.3 381.7 377.7 409 375.2C436.3 372.7 463.7 370.3 491 372.3C518.3 374.3 545.7 380.7 573 383.7C600.3 386.7 627.7 386.3 654.8 381.7C682 377 709 368 736.2 362.8C763.3 357.7 790.7 356.3 818 356.8C845.3 357.3 872.7 359.7 886.3 360.8L900 362L900 451L886.3 451C872.7 451 845.3 451 818 451C790.7 451 763.3 451 736.2 451C709 451 682 451 654.8 451C627.7 451 600.3 451 573 451C545.7 451 518.3 451 491 451C463.7 451 436.3 451 409 451C381.7 451 354.3 451 327 451C299.7 451 272.3 451 245.2 451C218 451 191 451 163.8 451C136.7 451 109.3 451 82 451C54.7 451 27.3 451 13.7 451L0 451Z" fill="#515153"></path><path d="M0 385L13.7 384.2C27.3 383.3 54.7 381.7 82 384.7C109.3 387.7 136.7 395.3 163.8 394.2C191 393 218 383 245.2 380C272.3 377 299.7 381 327 384.2C354.3 387.3 381.7 389.7 409 389.3C436.3 389 463.7 386 491 383.5C518.3 381 545.7 379 573 382.2C600.3 385.3 627.7 393.7 654.8 396C682 398.3 709 394.7 736.2 392.3C763.3 390 790.7 389 818 388.2C845.3 387.3 872.7 386.7 886.3 386.3L900 386L900 451L886.3 451C872.7 451 845.3 451 818 451C790.7 451 763.3 451 736.2 451C709 451 682 451 654.8 451C627.7 451 600.3 451 573 451C545.7 451 518.3 451 491 451C463.7 451 436.3 451 409 451C381.7 451 354.3 451 327 451C299.7 451 272.3 451 245.2 451C218 451 191 451 163.8 451C136.7 451 109.3 451 82 451C54.7 451 27.3 451 13.7 451L0 451Z" fill="#3e3e41"></path><path d="M0 419L13.7 416.2C27.3 413.3 54.7 407.7 82 406.5C109.3 405.3 136.7 408.7 163.8 409.8C191 411 218 410 245.2 411.5C272.3 413 299.7 417 327 418.5C354.3 420 381.7 419 409 415.8C436.3 412.7 463.7 407.3 491 403.8C518.3 400.3 545.7 398.7 573 400.2C600.3 401.7 627.7 406.3 654.8 409.8C682 413.3 709 415.7 736.2 416C763.3 416.3 790.7 414.7 818 413.2C845.3 411.7 872.7 410.3 886.3 409.7L900 409L900 451L886.3 451C872.7 451 845.3 451 818 451C790.7 451 763.3 451 736.2 451C709 451 682 451 654.8 451C627.7 451 600.3 451 573 451C545.7 451 518.3 451 491 451C463.7 451 436.3 451 409 451C381.7 451 354.3 451 327 451C299.7 451 272.3 451 245.2 451C218 451 191 451 163.8 451C136.7 451 109.3 451 82 451C54.7 451 27.3 451 13.7 451L0 451Z" fill="#2c2c2f"></path><path d="M0 426L13.7 426.7C27.3 427.3 54.7 428.7 82 428.2C109.3 427.7 136.7 425.3 163.8 423.7C191 422 218 421 245.2 419.3C272.3 417.7 299.7 415.3 327 416.8C354.3 418.3 381.7 423.7 409 427.7C436.3 431.7 463.7 434.3 491 434C518.3 433.7 545.7 430.3 573 429.7C600.3 429 627.7 431 654.8 431.8C682 432.7 709 432.3 736.2 429.8C763.3 427.3 790.7 422.7 818 423C845.3 423.3 872.7 428.7 886.3 431.3L900 434L900 451L886.3 451C872.7 451 845.3 451 818 451C790.7 451 763.3 451 736.2 451C709 451 682 451 654.8 451C627.7 451 600.3 451 573 451C545.7 451 518.3 451 491 451C463.7 451 436.3 451 409 451C381.7 451 354.3 451 327 451C299.7 451 272.3 451 245.2 451C218 451 191 451 163.8 451C136.7 451 109.3 451 82 451C54.7 451 27.3 451 13.7 451L0 451Z" fill="#1b1b1e"></path></svg>