<svg id="visual" viewBox="0 0 900 600" width="900" height="600" xmlns="http://www.w3.org/2000/svg" xmlns:xlink="http://www.w3.org/1999/xlink" version="1.1"><rect x="0" y="0" width="900" height="600" fill="#1B1B1E"></rect><path d="M0 233L8.3 233.5C16.7 234 33.3 235 50 235.7C66.7 236.3 83.3 236.7 100 234.8C116.7 233 133.3 229 150 226.3C166.7 223.7 183.3 222.3 200 224.3C216.7 226.3 233.3 231.7 250 236.8C266.7 242 283.3 247 300 249.7C316.7 252.3 333.3 252.7 350 249.8C366.7 247 383.3 241 400 237.7C416.7 234.3 433.3 233.7 450 235.2C466.7 236.7 483.3 240.3 500 248.2C516.7 256 533.3 268 550 272.5C566.7 277 583.3 274 600 272.3C616.7 270.7 633.3 270.3 650 272.3C666.7 274.3 683.3 278.7 700 274.5C716.7 270.3 733.3 257.7 750 252.2C766.7 246.7 783.3 248.3 800 244.8C816.7 241.3 833.3 232.7 850 227.5C866.7 222.3 883.3 220.7 891.7 219.8L900 219L900 601L891.7 601C883.3 601 866.7 601 850 601C833.3 601 816.7 601 800 601C783.3 601 766.7 601 750 601C733.3 601 716.7 601 700 601C683.3 601 666.7 601 650 601C633.3 601 616.7 601 600 601C583.3 601 566.7 601 550 601C533.3 601 516.7 601 500 601C483.3 601 466.7 601 450 601C433.3 601 416.7 601 400 601C383.3 601 366.7 601 350 601C333.3 601 316.7 601 300 601C283.3 601 266.7 601 250 601C233.3 601 216.7 601 200 601C183.3 601 166.7 601 150 601C133.3 601 116.7 601 100 601C83.3 601 66.7 601 50 601C33.3 601 16.7 601 8.3 601L0 601Z" fill="#e74c3c"></path><path d="M0 288L8.3 296.5C16.7 305 33.3 322 50 330.5C66.7 339 83.3 339 100 336.3C116.7 333.7 133.3 328.3 150 324.8C166.7 321.3 183.3 319.7 200 322.3C216.7 325 233.3 332 250 333.7C266.7 335.3 283.3 331.7 300 322.3C316.7 313 333.3 298 350 293.2C366.7 288.3 383.3 293.7 400 298.5C416.7 303.3 433.3 307.7 450 312C466.7 316.3 483.3 320.7 500 324C516.7 327.3 533.3 329.7 550 331.2C566.7 332.7 583.3 333.3 600 326C616.7 318.7 633.3 303.3 650 301.3C666.7 299.3 683.3 310.7 700 319.5C716.7 328.3 733.3 334.7 750 334.3C766.7 334 783.3 327 800 325.5C816.7 324 833.3 328 850 332.2C866.7 336.3 883.3 340.7 891.7 342.8L900 345L900 601L891.7 601C883.3 601 866.7 601 850 601C833.3 601 816.7 601 800 601C783.3 601 766.7 601 750 601C733.3 601 716.7 601 700 601C683.3 601 666.7 601 650 601C633.3 601 616.7 601 600 601C583.3 601 566.7 601 550 601C533.3 601 516.7 601 500 601C483.3 601 466.7 601 450 601C433.3 601 416.7 601 400 601C383.3 601 366.7 601 350 601C333.3 601 316.7 601 300 601C283.3 601 266.7 601 250 601C233.3 601 216.7 601 200 601C183.3 601 166.7 601 150 601C133.3 601 116.7 601 100 601C83.3 601 66.7 601 50 601C33.3 601 16.7 601 8.3 601L0 601Z" fill="#b73659"></path><path d="M0 355L8.3 357C16.7 359 33.3 363 50 372.8C66.7 382.7 83.3 398.3 100 397.2C116.7 396 133.3 378 150 370.2C166.7 362.3 183.3 364.7 200 373.3C216.7 382 233.3 397 250 398.3C266.7 399.7 283.3 387.3 300 385.7C316.7 384 333.3 393 350 399.3C366.7 405.7 383.3 409.3 400 410.8C416.7 412.3 433.3 411.7 450 406.8C466.7 402 483.3 393 500 390C516.7 387 533.3 390 550 391.3C566.7 392.7 583.3 392.3 600 395.3C616.7 398.3 633.3 404.7 650 400.5C666.7 396.3 683.3 381.7 700 378.5C716.7 375.3 733.3 383.7 750 383.2C766.7 382.7 783.3 373.3 800 370.8C816.7 368.3 833.3 372.7 850 379.3C866.7 386 883.3 395 891.7 399.5L900 404L900 601L891.7 601C883.3 601 866.7 601 850 601C833.3 601 816.7 601 800 601C783.3 601 766.7 601 750 601C733.3 601 716.7 601 700 601C683.3 601 666.7 601 650 601C633.3 601 616.7 601 600 601C583.3 601 566.7 601 550 601C533.3 601 516.7 601 500 601C483.3 601 466.7 601 450 601C433.3 601 416.7 601 400 601C383.3 601 366.7 601 350 601C333.3 601 316.7 601 300 601C283.3 601 266.7 601 250 601C233.3 601 216.7 601 200 601C183.3 601 166.7 601 150 601C133.3 601 116.7 601 100 601C83.3 601 66.7 601 50 601C33.3 601 16.7 601 8.3 601L0 601Z" fill="#79335d"></path><path d="M0 465L8.3 458.8C16.7 452.7 33.3 440.3 50 441.7C66.7 443 83.3 458 100 458.2C116.7 458.3 133.3 443.7 150 436C166.7 428.3 183.3 427.7 200 430C216.7 432.3 233.3 437.7 250 445.8C266.7 454 283.3 465 300 467C316.7 469 333.3 462 350 460.8C366.7 459.7 383.3 464.3 400 467.8C416.7 471.3 433.3 473.7 450 468.8C466.7 464 483.3 452 500 451.2C516.7 450.3 533.3 460.7 550 460.8C566.7 461 583.3 451 600 447C616.7 443 633.3 445 650 447.5C666.7 450 683.3 453 700 454.5C716.7 456 733.3 456 750 455.2C766.7 454.3 783.3 452.7 800 447.7C816.7 442.7 833.3 434.3 850 437.3C866.7 440.3 883.3 454.7 891.7 461.8L900 469L900 601L891.7 601C883.3 601 866.7 601 850 601C833.3 601 816.7 601 800 601C783.3 601 766.7 601 750 601C733.3 601 716.7 601 700 601C683.3 601 666.7 601 650 601C633.3 601 616.7 601 600 601C583.3 601 566.7 601 550 601C533.3 601 516.7 601 500 601C483.3 601 466.7 601 450 601C433.3 601 416.7 601 400 601C383.3 601 366.7 601 350 601C333.3 601 316.7 601 300 601C283.3 601 266.7 601 250 601C233.3 601 216.7 601 200 601C183.3 601 166.7 601 150 601C133.3 601 116.7 601 100 601C83.3 601 66.7 601 50 601C33.3 601 16.7 601 8.3 601L0 601Z" fill="#3f2c46"></path><path d="M0 504L8.3 504.2C16.7 504.3 33.3 504.7 50 505.5C66.7 506.3 83.3 507.7 100 512.2C116.7 516.7 133.3 524.3 150 523.2C166.7 522 183.3 512 200 512.8C216.7 513.7 233.3 525.3 250 529.2C266.7 533 283.3 529 300 528C316.7 527 333.3 529 350 527.8C366.7 526.7 383.3 522.3 400 522.2C416.7 522 433.3 526 450 525C466.7 524 483.3 518 500 514.8C516.7 511.7 533.3 511.3 550 516.2C566.7 521 583.3 531 600 533.3C616.7 535.7 633.3 530.3 650 523.3C666.7 516.3 683.3 507.7 700 504.5C716.7 501.3 733.3 503.7 750 507.7C766.7 511.7 783.3 517.3 800 518.7C816.7 520 833.3 517 850 519C866.7 521 883.3 528 891.7 531.5L900 535L900 601L891.7 601C883.3 601 866.7 601 850 601C833.3 601 816.7 601 800 601C783.3 601 766.7 601 750 601C733.3 601 716.7 601 700 601C683.3 601 666.7 601 650 601C633.3 601 616.7 601 600 601C583.3 601 566.7 601 550 601C533.3 601 516.7 601 500 601C483.3 601 466.7 601 450 601C433.3 601 416.7 601 400 601C383.3 601 366.7 601 350 601C333.3 601 316.7 601 300 601C283.3 601 266.7 601 250 601C233.3 601 216.7 601 200 601C183.3 601 166.7 601 150 601C133.3 601 116.7 601 100 601C83.3 601 66.7 601 50 601C33.3 601 16.7 601 8.3 601L0 601Z" fill="#1b1b1e"></path></svg>