<svg id="visual" viewBox="0 0 960 300" width="960" height="300" xmlns="http://www.w3.org/2000/svg" xmlns:xlink="http://www.w3.org/1999/xlink" version="1.1"><rect x="0" y="0" width="960" height="300" fill="#1B1B1E"></rect><path d="M0 74L8.5 84.2C17 94.3 34 114.7 50.8 113.2C67.7 111.7 84.3 88.3 101.2 76.5C118 64.7 135 64.3 151.8 67.8C168.7 71.3 185.3 78.7 202.2 78.8C219 79 236 72 252.8 78.8C269.7 85.7 286.3 106.3 303.2 104.3C320 102.3 337 77.7 353.8 69.8C370.7 62 387.3 71 404.2 76C421 81 438 82 454.8 87.5C471.7 93 488.3 103 505.2 101.7C522 100.3 539 87.7 555.8 86.5C572.7 85.3 589.3 95.7 606.2 92.3C623 89 640 72 656.8 72.3C673.7 72.7 690.3 90.3 707.2 98.7C724 107 741 106 757.8 98.8C774.7 91.7 791.3 78.3 808.2 83C825 87.7 842 110.3 858.8 116C875.7 121.7 892.3 110.3 909.2 104.8C926 99.3 943 99.7 951.5 99.8L960 100L960 301L951.5 301C943 301 926 301 909.2 301C892.3 301 875.7 301 858.8 301C842 301 825 301 808.2 301C791.3 301 774.7 301 757.8 301C741 301 724 301 707.2 301C690.3 301 673.7 301 656.8 301C640 301 623 301 606.2 301C589.3 301 572.7 301 555.8 301C539 301 522 301 505.2 301C488.3 301 471.7 301 454.8 301C438 301 421 301 404.2 301C387.3 301 370.7 301 353.8 301C337 301 320 301 303.2 301C286.3 301 269.7 301 252.8 301C236 301 219 301 202.2 301C185.3 301 168.7 301 151.8 301C135 301 118 301 101.2 301C84.3 301 67.7 301 50.8 301C34 301 17 301 8.5 301L0 301Z" fill="#e74c3c"></path><path d="M0 125L8.5 119.8C17 114.7 34 104.3 50.8 97.5C67.7 90.7 84.3 87.3 101.2 89.2C118 91 135 98 151.8 99C168.7 100 185.3 95 202.2 102.8C219 110.7 236 131.3 252.8 143C269.7 154.7 286.3 157.3 303.2 145.5C320 133.7 337 107.3 353.8 94.8C370.7 82.3 387.3 83.7 404.2 91C421 98.3 438 111.7 454.8 118.2C471.7 124.7 488.3 124.3 505.2 125.8C522 127.3 539 130.7 555.8 125.7C572.7 120.7 589.3 107.3 606.2 103.5C623 99.7 640 105.3 656.8 113.5C673.7 121.7 690.3 132.3 707.2 128.3C724 124.3 741 105.7 757.8 104.3C774.7 103 791.3 119 808.2 127.8C825 136.7 842 138.3 858.8 130.7C875.7 123 892.3 106 909.2 107.3C926 108.7 943 128.3 951.5 138.2L960 148L960 301L951.5 301C943 301 926 301 909.2 301C892.3 301 875.7 301 858.8 301C842 301 825 301 808.2 301C791.3 301 774.7 301 757.8 301C741 301 724 301 707.2 301C690.3 301 673.7 301 656.8 301C640 301 623 301 606.2 301C589.3 301 572.7 301 555.8 301C539 301 522 301 505.2 301C488.3 301 471.7 301 454.8 301C438 301 421 301 404.2 301C387.3 301 370.7 301 353.8 301C337 301 320 301 303.2 301C286.3 301 269.7 301 252.8 301C236 301 219 301 202.2 301C185.3 301 168.7 301 151.8 301C135 301 118 301 101.2 301C84.3 301 67.7 301 50.8 301C34 301 17 301 8.5 301L0 301Z" fill="#ca3a52"></path><path d="M0 136L8.5 139.5C17 143 34 150 50.8 157.3C67.7 164.7 84.3 172.3 101.2 169.3C118 166.3 135 152.7 151.8 146.3C168.7 140 185.3 141 202.2 143C219 145 236 148 252.8 150.7C269.7 153.3 286.3 155.7 303.2 156.3C320 157 337 156 353.8 160.3C370.7 164.7 387.3 174.3 404.2 175.2C421 176 438 168 454.8 158.2C471.7 148.3 488.3 136.7 505.2 137.3C522 138 539 151 555.8 158.8C572.7 166.7 589.3 169.3 606.2 162.5C623 155.7 640 139.3 656.8 135.5C673.7 131.7 690.3 140.3 707.2 143C724 145.7 741 142.3 757.8 145.2C774.7 148 791.3 157 808.2 156.3C825 155.7 842 145.3 858.8 140.8C875.7 136.3 892.3 137.7 909.2 139C926 140.3 943 141.7 951.5 142.3L960 143L960 301L951.5 301C943 301 926 301 909.2 301C892.3 301 875.7 301 858.8 301C842 301 825 301 808.2 301C791.3 301 774.7 301 757.8 301C741 301 724 301 707.2 301C690.3 301 673.7 301 656.8 301C640 301 623 301 606.2 301C589.3 301 572.7 301 555.8 301C539 301 522 301 505.2 301C488.3 301 471.7 301 454.8 301C438 301 421 301 404.2 301C387.3 301 370.7 301 353.8 301C337 301 320 301 303.2 301C286.3 301 269.7 301 252.8 301C236 301 219 301 202.2 301C185.3 301 168.7 301 151.8 301C135 301 118 301 101.2 301C84.3 301 67.7 301 50.8 301C34 301 17 301 8.5 301L0 301Z" fill="#a3345e"></path><path d="M0 213L8.5 212.3C17 211.7 34 210.3 50.8 204.3C67.7 198.3 84.3 187.7 101.2 183.5C118 179.3 135 181.7 151.8 176.8C168.7 172 185.3 160 202.2 156C219 152 236 156 252.8 162C269.7 168 286.3 176 303.2 183.5C320 191 337 198 353.8 198.5C370.7 199 387.3 193 404.2 193.7C421 194.3 438 201.7 454.8 202.7C471.7 203.7 488.3 198.3 505.2 191.3C522 184.3 539 175.7 555.8 171C572.7 166.3 589.3 165.7 606.2 162.5C623 159.3 640 153.7 656.8 161.5C673.7 169.3 690.3 190.7 707.2 201.5C724 212.3 741 212.7 757.8 212.5C774.7 212.3 791.3 211.7 808.2 207.7C825 203.7 842 196.3 858.8 192.3C875.7 188.3 892.3 187.7 909.2 186.3C926 185 943 183 951.5 182L960 181L960 301L951.5 301C943 301 926 301 909.2 301C892.3 301 875.7 301 858.8 301C842 301 825 301 808.2 301C791.3 301 774.7 301 757.8 301C741 301 724 301 707.2 301C690.3 301 673.7 301 656.8 301C640 301 623 301 606.2 301C589.3 301 572.7 301 555.8 301C539 301 522 301 505.2 301C488.3 301 471.7 301 454.8 301C438 301 421 301 404.2 301C387.3 301 370.7 301 353.8 301C337 301 320 301 303.2 301C286.3 301 269.7 301 252.8 301C236 301 219 301 202.2 301C185.3 301 168.7 301 151.8 301C135 301 118 301 101.2 301C84.3 301 67.7 301 50.8 301C34 301 17 301 8.5 301L0 301Z" fill="#79335d"></path><path d="M0 207L8.5 210.5C17 214 34 221 50.8 224.8C67.7 228.7 84.3 229.3 101.2 227C118 224.7 135 219.3 151.8 211.5C168.7 203.7 185.3 193.3 202.2 195.3C219 197.3 236 211.7 252.8 214.5C269.7 217.3 286.3 208.7 303.2 205.5C320 202.3 337 204.7 353.8 202.8C370.7 201 387.3 195 404.2 199.2C421 203.3 438 217.7 454.8 224.3C471.7 231 488.3 230 505.2 226.8C522 223.7 539 218.3 555.8 218.2C572.7 218 589.3 223 606.2 217.2C623 211.3 640 194.7 656.8 190.2C673.7 185.7 690.3 193.3 707.2 201.3C724 209.3 741 217.7 757.8 223.2C774.7 228.7 791.3 231.3 808.2 227.2C825 223 842 212 858.8 210.7C875.7 209.3 892.3 217.7 909.2 223.3C926 229 943 232 951.5 233.5L960 235L960 301L951.5 301C943 301 926 301 909.2 301C892.3 301 875.7 301 858.8 301C842 301 825 301 808.2 301C791.3 301 774.7 301 757.8 301C741 301 724 301 707.2 301C690.3 301 673.7 301 656.8 301C640 301 623 301 606.2 301C589.3 301 572.7 301 555.8 301C539 301 522 301 505.2 301C488.3 301 471.7 301 454.8 301C438 301 421 301 404.2 301C387.3 301 370.7 301 353.8 301C337 301 320 301 303.2 301C286.3 301 269.7 301 252.8 301C236 301 219 301 202.2 301C185.3 301 168.7 301 151.8 301C135 301 118 301 101.2 301C84.3 301 67.7 301 50.8 301C34 301 17 301 8.5 301L0 301Z" fill="#502f51"></path><path d="M0 213L8.5 219.2C17 225.3 34 237.7 50.8 244C67.7 250.3 84.3 250.7 101.2 246.2C118 241.7 135 232.3 151.8 231.5C168.7 230.7 185.3 238.3 202.2 236.3C219 234.3 236 222.7 252.8 223C269.7 223.3 286.3 235.7 303.2 239.8C320 244 337 240 353.8 240.5C370.7 241 387.3 246 404.2 247C421 248 438 245 454.8 239.2C471.7 233.3 488.3 224.7 505.2 224C522 223.3 539 230.7 555.8 237C572.7 243.3 589.3 248.7 606.2 249C623 249.3 640 244.7 656.8 244.7C673.7 244.7 690.3 249.3 707.2 248.7C724 248 741 242 757.8 243.3C774.7 244.7 791.3 253.3 808.2 251.8C825 250.3 842 238.7 858.8 235.3C875.7 232 892.3 237 909.2 239.3C926 241.7 943 241.3 951.5 241.2L960 241L960 301L951.5 301C943 301 926 301 909.2 301C892.3 301 875.7 301 858.8 301C842 301 825 301 808.2 301C791.3 301 774.7 301 757.8 301C741 301 724 301 707.2 301C690.3 301 673.7 301 656.8 301C640 301 623 301 606.2 301C589.3 301 572.7 301 555.8 301C539 301 522 301 505.2 301C488.3 301 471.7 301 454.8 301C438 301 421 301 404.2 301C387.3 301 370.7 301 353.8 301C337 301 320 301 303.2 301C286.3 301 269.7 301 252.8 301C236 301 219 301 202.2 301C185.3 301 168.7 301 151.8 301C135 301 118 301 101.2 301C84.3 301 67.7 301 50.8 301C34 301 17 301 8.5 301L0 301Z" fill="#30273a"></path><path d="M0 242L8.5 248.5C17 255 34 268 50.8 272.3C67.7 276.7 84.3 272.3 101.2 270.8C118 269.3 135 270.7 151.8 266.8C168.7 263 185.3 254 202.2 249.3C219 244.7 236 244.3 252.8 251.3C269.7 258.3 286.3 272.7 303.2 279.8C320 287 337 287 353.8 282.7C370.7 278.3 387.3 269.7 404.2 268.5C421 267.3 438 273.7 454.8 274.3C471.7 275 488.3 270 505.2 269.3C522 268.7 539 272.3 555.8 271.8C572.7 271.3 589.3 266.7 606.2 267.3C623 268 640 274 656.8 271.2C673.7 268.3 690.3 256.7 707.2 256.3C724 256 741 267 757.8 267.3C774.7 267.7 791.3 257.3 808.2 252.3C825 247.3 842 247.7 858.8 251.7C875.7 255.7 892.3 263.3 909.2 268.5C926 273.7 943 276.3 951.5 277.7L960 279L960 301L951.5 301C943 301 926 301 909.2 301C892.3 301 875.7 301 858.8 301C842 301 825 301 808.2 301C791.3 301 774.7 301 757.8 301C741 301 724 301 707.2 301C690.3 301 673.7 301 656.8 301C640 301 623 301 606.2 301C589.3 301 572.7 301 555.8 301C539 301 522 301 505.2 301C488.3 301 471.7 301 454.8 301C438 301 421 301 404.2 301C387.3 301 370.7 301 353.8 301C337 301 320 301 303.2 301C286.3 301 269.7 301 252.8 301C236 301 219 301 202.2 301C185.3 301 168.7 301 151.8 301C135 301 118 301 101.2 301C84.3 301 67.7 301 50.8 301C34 301 17 301 8.5 301L0 301Z" fill="#1b1b1e"></path></svg>