<svg id="visual" viewBox="0 0 900 600" width="900" height="600" xmlns="http://www.w3.org/2000/svg" xmlns:xlink="http://www.w3.org/1999/xlink" version="1.1"><rect x="0" y="0" width="900" height="600" fill="#e74c3c"></rect><path d="M0 239L10 247.8C20 256.7 40 274.3 60 274.8C80 275.3 100 258.7 120 265.7C140 272.7 160 303.3 180 299.7C200 296 220 258 240 253.7C260 249.3 280 278.7 300 295C320 311.3 340 314.7 360 299.2C380 283.7 400 249.3 420 242.7C440 236 460 257 480 256.3C500 255.7 520 233.3 540 234.8C560 236.3 580 261.7 600 281.7C620 301.7 640 316.3 660 313.8C680 311.3 700 291.7 720 292.3C740 293 760 314 780 325.5C800 337 820 339 840 322.8C860 306.7 880 272.3 890 255.2L900 238L900 601L890 601C880 601 860 601 840 601C820 601 800 601 780 601C760 601 740 601 720 601C700 601 680 601 660 601C640 601 620 601 600 601C580 601 560 601 540 601C520 601 500 601 480 601C460 601 440 601 420 601C400 601 380 601 360 601C340 601 320 601 300 601C280 601 260 601 240 601C220 601 200 601 180 601C160 601 140 601 120 601C100 601 80 601 60 601C40 601 20 601 10 601L0 601Z" fill="#e74c3c"></path><path d="M0 264L10 271.5C20 279 40 294 60 300.3C80 306.7 100 304.3 120 305C140 305.7 160 309.3 180 302C200 294.7 220 276.3 240 269C260 261.7 280 265.3 300 274.7C320 284 340 299 360 302.7C380 306.3 400 298.7 420 292C440 285.3 460 279.7 480 289.5C500 299.3 520 324.7 540 331.5C560 338.3 580 326.7 600 318.5C620 310.3 640 305.7 660 313.8C680 322 700 343 720 340.5C740 338 760 312 780 303.5C800 295 820 304 840 304.2C860 304.3 880 295.7 890 291.3L900 287L900 601L890 601C880 601 860 601 840 601C820 601 800 601 780 601C760 601 740 601 720 601C700 601 680 601 660 601C640 601 620 601 600 601C580 601 560 601 540 601C520 601 500 601 480 601C460 601 440 601 420 601C400 601 380 601 360 601C340 601 320 601 300 601C280 601 260 601 240 601C220 601 200 601 180 601C160 601 140 601 120 601C100 601 80 601 60 601C40 601 20 601 10 601L0 601Z" fill="#bc3758"></path><path d="M0 295L10 298.8C20 302.7 40 310.3 60 320.5C80 330.7 100 343.3 120 343.3C140 343.3 160 330.7 180 326.8C200 323 220 328 240 335C260 342 280 351 300 343.3C320 335.7 340 311.3 360 309.8C380 308.3 400 329.7 420 341.3C440 353 460 355 480 361.5C500 368 520 379 540 369C560 359 580 328 600 314.8C620 301.7 640 306.3 660 315.7C680 325 700 339 720 345.3C740 351.7 760 350.3 780 355.5C800 360.7 820 372.3 840 370.2C860 368 880 352 890 344L900 336L900 601L890 601C880 601 860 601 840 601C820 601 800 601 780 601C760 601 740 601 720 601C700 601 680 601 660 601C640 601 620 601 600 601C580 601 560 601 540 601C520 601 500 601 480 601C460 601 440 601 420 601C400 601 380 601 360 601C340 601 320 601 300 601C280 601 260 601 240 601C220 601 200 601 180 601C160 601 140 601 120 601C100 601 80 601 60 601C40 601 20 601 10 601L0 601Z" fill="#85335e"></path><path d="M0 359L10 366C20 373 40 387 60 390C80 393 100 385 120 378.3C140 371.7 160 366.3 180 362.3C200 358.3 220 355.7 240 350.3C260 345 280 337 300 330.5C320 324 340 319 360 318.8C380 318.7 400 323.3 420 333.5C440 343.7 460 359.3 480 360.5C500 361.7 520 348.3 540 353.2C560 358 580 381 600 382.8C620 384.7 640 365.3 660 362.2C680 359 700 372 720 371.3C740 370.7 760 356.3 780 357C800 357.7 820 373.3 840 374C860 374.7 880 360.3 890 353.2L900 346L900 601L890 601C880 601 860 601 840 601C820 601 800 601 780 601C760 601 740 601 720 601C700 601 680 601 660 601C640 601 620 601 600 601C580 601 560 601 540 601C520 601 500 601 480 601C460 601 440 601 420 601C400 601 380 601 360 601C340 601 320 601 300 601C280 601 260 601 240 601C220 601 200 601 180 601C160 601 140 601 120 601C100 601 80 601 60 601C40 601 20 601 10 601L0 601Z" fill="#4d2f4f"></path><path d="M0 385L10 390.3C20 395.7 40 406.3 60 408.8C80 411.3 100 405.7 120 406.5C140 407.3 160 414.7 180 415.2C200 415.7 220 409.3 240 403.3C260 397.3 280 391.7 300 382.3C320 373 340 360 360 364.2C380 368.3 400 389.7 420 405C440 420.3 460 429.7 480 419.3C500 409 520 379 540 365.7C560 352.3 580 355.7 600 357.5C620 359.3 640 359.7 660 371C680 382.3 700 404.7 720 413C740 421.3 760 415.7 780 407C800 398.3 820 386.7 840 388.5C860 390.3 880 405.7 890 413.3L900 421L900 601L890 601C880 601 860 601 840 601C820 601 800 601 780 601C760 601 740 601 720 601C700 601 680 601 660 601C640 601 620 601 600 601C580 601 560 601 540 601C520 601 500 601 480 601C460 601 440 601 420 601C400 601 380 601 360 601C340 601 320 601 300 601C280 601 260 601 240 601C220 601 200 601 180 601C160 601 140 601 120 601C100 601 80 601 60 601C40 601 20 601 10 601L0 601Z" fill="#25222e"></path><path d="M0 452L10 452.7C20 453.3 40 454.7 60 453.2C80 451.7 100 447.3 120 439.8C140 432.3 160 421.7 180 424.5C200 427.3 220 443.7 240 442.2C260 440.7 280 421.3 300 419.3C320 417.3 340 432.7 360 442.2C380 451.7 400 455.3 420 449.7C440 444 460 429 480 423.7C500 418.3 520 422.7 540 425C560 427.3 580 427.7 600 426.2C620 424.7 640 421.3 660 416.5C680 411.7 700 405.3 720 398.2C740 391 760 383 780 386.8C800 390.7 820 406.3 840 412.5C860 418.7 880 415.3 890 413.7L900 412L900 601L890 601C880 601 860 601 840 601C820 601 800 601 780 601C760 601 740 601 720 601C700 601 680 601 660 601C640 601 620 601 600 601C580 601 560 601 540 601C520 601 500 601 480 601C460 601 440 601 420 601C400 601 380 601 360 601C340 601 320 601 300 601C280 601 260 601 240 601C220 601 200 601 180 601C160 601 140 601 120 601C100 601 80 601 60 601C40 601 20 601 10 601L0 601Z" fill="#1b1b1e"></path><path d="M0 471L10 468.2C20 465.3 40 459.7 60 449.8C80 440 100 426 120 416.5C140 407 160 402 180 405.3C200 408.7 220 420.3 240 432C260 443.7 280 455.3 300 452.2C320 449 340 431 360 419C380 407 400 401 420 398.3C440 395.7 460 396.3 480 410.3C500 424.3 520 451.7 540 460.8C560 470 580 461 600 451.7C620 442.3 640 432.7 660 423.8C680 415 700 407 720 407C740 407 760 415 780 416.8C800 418.7 820 414.3 840 415.7C860 417 880 424 890 427.5L900 431L900 601L890 601C880 601 860 601 840 601C820 601 800 601 780 601C760 601 740 601 720 601C700 601 680 601 660 601C640 601 620 601 600 601C580 601 560 601 540 601C520 601 500 601 480 601C460 601 440 601 420 601C400 601 380 601 360 601C340 601 320 601 300 601C280 601 260 601 240 601C220 601 200 601 180 601C160 601 140 601 120 601C100 601 80 601 60 601C40 601 20 601 10 601L0 601Z" fill="#1b1b1e"></path><path d="M0 436L10 444.8C20 453.7 40 471.3 60 474.2C80 477 100 465 120 461.3C140 457.7 160 462.3 180 468.2C200 474 220 481 240 486.2C260 491.3 280 494.7 300 484.3C320 474 340 450 360 439.3C380 428.7 400 431.3 420 444.3C440 457.3 460 480.7 480 479C500 477.3 520 450.7 540 449.3C560 448 580 472 600 477.5C620 483 640 470 660 465.7C680 461.3 700 465.7 720 461.7C740 457.7 760 445.3 780 443.3C800 441.3 820 449.7 840 450.5C860 451.3 880 444.7 890 441.3L900 438L900 601L890 601C880 601 860 601 840 601C820 601 800 601 780 601C760 601 740 601 720 601C700 601 680 601 660 601C640 601 620 601 600 601C580 601 560 601 540 601C520 601 500 601 480 601C460 601 440 601 420 601C400 601 380 601 360 601C340 601 320 601 300 601C280 601 260 601 240 601C220 601 200 601 180 601C160 601 140 601 120 601C100 601 80 601 60 601C40 601 20 601 10 601L0 601Z" fill="#25222e"></path><path d="M0 459L10 463C20 467 40 475 60 485.3C80 495.7 100 508.3 120 514.5C140 520.7 160 520.3 180 516.2C200 512 220 504 240 496.3C260 488.7 280 481.3 300 486C320 490.7 340 507.3 360 510.3C380 513.3 400 502.7 420 502.8C440 503 460 514 480 509.8C500 505.7 520 486.3 540 479.2C560 472 580 477 600 476.3C620 475.7 640 469.3 660 469.5C680 469.7 700 476.3 720 478C740 479.7 760 476.3 780 472C800 467.7 820 462.3 840 466.5C860 470.7 880 484.3 890 491.2L900 498L900 601L890 601C880 601 860 601 840 601C820 601 800 601 780 601C760 601 740 601 720 601C700 601 680 601 660 601C640 601 620 601 600 601C580 601 560 601 540 601C520 601 500 601 480 601C460 601 440 601 420 601C400 601 380 601 360 601C340 601 320 601 300 601C280 601 260 601 240 601C220 601 200 601 180 601C160 601 140 601 120 601C100 601 80 601 60 601C40 601 20 601 10 601L0 601Z" fill="#4d2f4f"></path><path d="M0 545L10 535.2C20 525.3 40 505.7 60 504C80 502.3 100 518.7 120 518.8C140 519 160 503 180 499C200 495 220 503 240 506.3C260 509.7 280 508.3 300 507.8C320 507.3 340 507.7 360 506.7C380 505.7 400 503.3 420 500.7C440 498 460 495 480 495.7C500 496.3 520 500.7 540 507.7C560 514.7 580 524.3 600 530C620 535.7 640 537.3 660 534.7C680 532 700 525 720 522.8C740 520.7 760 523.3 780 520.2C800 517 820 508 840 502.5C860 497 880 495 890 494L900 493L900 601L890 601C880 601 860 601 840 601C820 601 800 601 780 601C760 601 740 601 720 601C700 601 680 601 660 601C640 601 620 601 600 601C580 601 560 601 540 601C520 601 500 601 480 601C460 601 440 601 420 601C400 601 380 601 360 601C340 601 320 601 300 601C280 601 260 601 240 601C220 601 200 601 180 601C160 601 140 601 120 601C100 601 80 601 60 601C40 601 20 601 10 601L0 601Z" fill="#85335e"></path><path d="M0 535L10 539.5C20 544 40 553 60 557.2C80 561.3 100 560.7 120 556.2C140 551.7 160 543.3 180 542.7C200 542 220 549 240 553.5C260 558 280 560 300 560.8C320 561.7 340 561.3 360 560.5C380 559.7 400 558.3 420 555.8C440 553.3 460 549.7 480 549.3C500 549 520 552 540 555.7C560 559.3 580 563.7 600 560.5C620 557.3 640 546.7 660 545.8C680 545 700 554 720 550.7C740 547.3 760 531.7 780 528.8C800 526 820 536 840 535.8C860 535.7 880 525.3 890 520.2L900 515L900 601L890 601C880 601 860 601 840 601C820 601 800 601 780 601C760 601 740 601 720 601C700 601 680 601 660 601C640 601 620 601 600 601C580 601 560 601 540 601C520 601 500 601 480 601C460 601 440 601 420 601C400 601 380 601 360 601C340 601 320 601 300 601C280 601 260 601 240 601C220 601 200 601 180 601C160 601 140 601 120 601C100 601 80 601 60 601C40 601 20 601 10 601L0 601Z" fill="#bc3758"></path><path d="M0 588L10 586.2C20 584.3 40 580.7 60 577.5C80 574.3 100 571.7 120 568C140 564.3 160 559.7 180 558.5C200 557.3 220 559.7 240 560.8C260 562 280 562 300 561.3C320 560.7 340 559.3 360 560C380 560.7 400 563.3 420 563.5C440 563.7 460 561.3 480 558C500 554.7 520 550.3 540 551.8C560 553.3 580 560.7 600 563.3C620 566 640 564 660 566C680 568 700 574 720 574.3C740 574.7 760 569.3 780 569.7C800 570 820 576 840 573.8C860 571.7 880 561.3 890 556.2L900 551L900 601L890 601C880 601 860 601 840 601C820 601 800 601 780 601C760 601 740 601 720 601C700 601 680 601 660 601C640 601 620 601 600 601C580 601 560 601 540 601C520 601 500 601 480 601C460 601 440 601 420 601C400 601 380 601 360 601C340 601 320 601 300 601C280 601 260 601 240 601C220 601 200 601 180 601C160 601 140 601 120 601C100 601 80 601 60 601C40 601 20 601 10 601L0 601Z" fill="#e74c3c"></path></svg>