<svg id="visual" viewBox="0 0 900 600" width="900" height="600" xmlns="http://www.w3.org/2000/svg" xmlns:xlink="http://www.w3.org/1999/xlink" version="1.1"><rect x="0" y="0" width="900" height="600" fill="#A7233A"></rect><path d="M0 187L7.8 199C15.7 211 31.3 235 47.2 214.7C63 194.3 79 129.7 94.8 119.5C110.7 109.3 126.3 153.7 142 166.5C157.7 179.3 173.3 160.7 189.2 167.2C205 173.7 221 205.3 236.8 189.5C252.7 173.7 268.3 110.3 284.2 92.7C300 75 316 103 331.8 116.5C347.7 130 363.3 129 379 116.8C394.7 104.7 410.3 81.3 426.2 65.3C442 49.3 458 40.7 473.8 37C489.7 33.3 505.3 34.7 521 42.7C536.7 50.7 552.3 65.3 568.2 103.2C584 141 600 202 615.8 205.5C631.7 209 647.3 155 663.2 149C679 143 695 185 710.8 179C726.7 173 742.3 119 758 125.5C773.7 132 789.3 199 805.2 223.3C821 247.7 837 229.3 852.8 209C868.7 188.7 884.3 166.3 892.2 155.2L900 144L900 601L892.2 601C884.3 601 868.7 601 852.8 601C837 601 821 601 805.2 601C789.3 601 773.7 601 758 601C742.3 601 726.7 601 710.8 601C695 601 679 601 663.2 601C647.3 601 631.7 601 615.8 601C600 601 584 601 568.2 601C552.3 601 536.7 601 521 601C505.3 601 489.7 601 473.8 601C458 601 442 601 426.2 601C410.3 601 394.7 601 379 601C363.3 601 347.7 601 331.8 601C316 601 300 601 284.2 601C268.3 601 252.7 601 236.8 601C221 601 205 601 189.2 601C173.3 601 157.7 601 142 601C126.3 601 110.7 601 94.8 601C79 601 63 601 47.2 601C31.3 601 15.7 601 7.8 601L0 601Z" fill="#a7233a"></path><path d="M0 197L7.8 215.7C15.7 234.3 31.3 271.7 47.2 275C63 278.3 79 247.7 94.8 241.3C110.7 235 126.3 253 142 246.5C157.7 240 173.3 209 189.2 206.5C205 204 221 230 236.8 234.7C252.7 239.3 268.3 222.7 284.2 224.8C300 227 316 248 331.8 268.7C347.7 289.3 363.3 309.7 379 309.5C394.7 309.3 410.3 288.7 426.2 281C442 273.3 458 278.7 473.8 257.2C489.7 235.7 505.3 187.3 521 186.2C536.7 185 552.3 231 568.2 232.3C584 233.7 600 190.3 615.8 197.3C631.7 204.3 647.3 261.7 663.2 256C679 250.3 695 181.7 710.8 171.8C726.7 162 742.3 211 758 216.7C773.7 222.3 789.3 184.7 805.2 183.3C821 182 837 217 852.8 223.2C868.7 229.3 884.3 206.7 892.2 195.3L900 184L900 601L892.2 601C884.3 601 868.7 601 852.8 601C837 601 821 601 805.2 601C789.3 601 773.7 601 758 601C742.3 601 726.7 601 710.8 601C695 601 679 601 663.2 601C647.3 601 631.7 601 615.8 601C600 601 584 601 568.2 601C552.3 601 536.7 601 521 601C505.3 601 489.7 601 473.8 601C458 601 442 601 426.2 601C410.3 601 394.7 601 379 601C363.3 601 347.7 601 331.8 601C316 601 300 601 284.2 601C268.3 601 252.7 601 236.8 601C221 601 205 601 189.2 601C173.3 601 157.7 601 142 601C126.3 601 110.7 601 94.8 601C79 601 63 601 47.2 601C31.3 601 15.7 601 7.8 601L0 601Z" fill="#8a2249"></path><path d="M0 325L7.8 320.3C15.7 315.7 31.3 306.3 47.2 303.8C63 301.3 79 305.7 94.8 310.3C110.7 315 126.3 320 142 332.7C157.7 345.3 173.3 365.7 189.2 366.7C205 367.7 221 349.3 236.8 339.8C252.7 330.3 268.3 329.7 284.2 324.3C300 319 316 309 331.8 303C347.7 297 363.3 295 379 297.8C394.7 300.7 410.3 308.3 426.2 299.3C442 290.3 458 264.7 473.8 270.7C489.7 276.7 505.3 314.3 521 325.3C536.7 336.3 552.3 320.7 568.2 319.2C584 317.7 600 330.3 615.8 325.7C631.7 321 647.3 299 663.2 303.7C679 308.3 695 339.7 710.8 351.2C726.7 362.7 742.3 354.3 758 328.2C773.7 302 789.3 258 805.2 234.3C821 210.7 837 207.3 852.8 212C868.7 216.7 884.3 229.3 892.2 235.7L900 242L900 601L892.2 601C884.3 601 868.7 601 852.8 601C837 601 821 601 805.2 601C789.3 601 773.7 601 758 601C742.3 601 726.7 601 710.8 601C695 601 679 601 663.2 601C647.3 601 631.7 601 615.8 601C600 601 584 601 568.2 601C552.3 601 536.7 601 521 601C505.3 601 489.7 601 473.8 601C458 601 442 601 426.2 601C410.3 601 394.7 601 379 601C363.3 601 347.7 601 331.8 601C316 601 300 601 284.2 601C268.3 601 252.7 601 236.8 601C221 601 205 601 189.2 601C173.3 601 157.7 601 142 601C126.3 601 110.7 601 94.8 601C79 601 63 601 47.2 601C31.3 601 15.7 601 7.8 601L0 601Z" fill="#68264d"></path><path d="M0 430L7.8 404.8C15.7 379.7 31.3 329.3 47.2 310.3C63 291.3 79 303.7 94.8 331C110.7 358.3 126.3 400.7 142 423.2C157.7 445.7 173.3 448.3 189.2 423.3C205 398.3 221 345.7 236.8 340.3C252.7 335 268.3 377 284.2 382.8C300 388.7 316 358.3 331.8 341.2C347.7 324 363.3 320 379 335.5C394.7 351 410.3 386 426.2 408.7C442 431.3 458 441.7 473.8 421C489.7 400.3 505.3 348.7 521 336.5C536.7 324.3 552.3 351.7 568.2 372.5C584 393.3 600 407.7 615.8 409.2C631.7 410.7 647.3 399.3 663.2 385.7C679 372 695 356 710.8 361C726.7 366 742.3 392 758 383.2C773.7 374.3 789.3 330.7 805.2 321.2C821 311.7 837 336.3 852.8 339.8C868.7 343.3 884.3 325.7 892.2 316.8L900 308L900 601L892.2 601C884.3 601 868.7 601 852.8 601C837 601 821 601 805.2 601C789.3 601 773.7 601 758 601C742.3 601 726.7 601 710.8 601C695 601 679 601 663.2 601C647.3 601 631.7 601 615.8 601C600 601 584 601 568.2 601C552.3 601 536.7 601 521 601C505.3 601 489.7 601 473.8 601C458 601 442 601 426.2 601C410.3 601 394.7 601 379 601C363.3 601 347.7 601 331.8 601C316 601 300 601 284.2 601C268.3 601 252.7 601 236.8 601C221 601 205 601 189.2 601C173.3 601 157.7 601 142 601C126.3 601 110.7 601 94.8 601C79 601 63 601 47.2 601C31.3 601 15.7 601 7.8 601L0 601Z" fill="#472746"></path><path d="M0 368L7.8 388C15.7 408 31.3 448 47.2 453.8C63 459.7 79 431.3 94.8 422.5C110.7 413.7 126.3 424.3 142 426.2C157.7 428 173.3 421 189.2 419.5C205 418 221 422 236.8 425.3C252.7 428.7 268.3 431.3 284.2 428.5C300 425.7 316 417.3 331.8 410.8C347.7 404.3 363.3 399.7 379 404.5C394.7 409.3 410.3 423.7 426.2 421.8C442 420 458 402 473.8 392.5C489.7 383 505.3 382 521 386.2C536.7 390.3 552.3 399.7 568.2 402.5C584 405.3 600 401.7 615.8 415C631.7 428.3 647.3 458.7 663.2 467.7C679 476.7 695 464.3 710.8 454.5C726.7 444.7 742.3 437.3 758 432.2C773.7 427 789.3 424 805.2 425C821 426 837 431 852.8 438.3C868.7 445.7 884.3 455.3 892.2 460.2L900 465L900 601L892.2 601C884.3 601 868.7 601 852.8 601C837 601 821 601 805.2 601C789.3 601 773.7 601 758 601C742.3 601 726.7 601 710.8 601C695 601 679 601 663.2 601C647.3 601 631.7 601 615.8 601C600 601 584 601 568.2 601C552.3 601 536.7 601 521 601C505.3 601 489.7 601 473.8 601C458 601 442 601 426.2 601C410.3 601 394.7 601 379 601C363.3 601 347.7 601 331.8 601C316 601 300 601 284.2 601C268.3 601 252.7 601 236.8 601C221 601 205 601 189.2 601C173.3 601 157.7 601 142 601C126.3 601 110.7 601 94.8 601C79 601 63 601 47.2 601C31.3 601 15.7 601 7.8 601L0 601Z" fill="#2b2335"></path><path d="M0 563L7.8 550.3C15.7 537.7 31.3 512.3 47.2 504.3C63 496.3 79 505.7 94.8 501.2C110.7 496.7 126.3 478.3 142 480.3C157.7 482.3 173.3 504.7 189.2 521.2C205 537.7 221 548.3 236.8 546C252.7 543.7 268.3 528.3 284.2 528.3C300 528.3 316 543.7 331.8 543.5C347.7 543.3 363.3 527.7 379 522.3C394.7 517 410.3 522 426.2 529.5C442 537 458 547 473.8 548.2C489.7 549.3 505.3 541.7 521 538.7C536.7 535.7 552.3 537.3 568.2 544.3C584 551.3 600 563.7 615.8 549.3C631.7 535 647.3 494 663.2 488.7C679 483.3 695 513.7 710.8 532.8C726.7 552 742.3 560 758 544.7C773.7 529.3 789.3 490.7 805.2 492.8C821 495 837 538 852.8 538.2C868.7 538.3 884.3 495.7 892.2 474.3L900 453L900 601L892.2 601C884.3 601 868.7 601 852.8 601C837 601 821 601 805.2 601C789.3 601 773.7 601 758 601C742.3 601 726.7 601 710.8 601C695 601 679 601 663.2 601C647.3 601 631.7 601 615.8 601C600 601 584 601 568.2 601C552.3 601 536.7 601 521 601C505.3 601 489.7 601 473.8 601C458 601 442 601 426.2 601C410.3 601 394.7 601 379 601C363.3 601 347.7 601 331.8 601C316 601 300 601 284.2 601C268.3 601 252.7 601 236.8 601C221 601 205 601 189.2 601C173.3 601 157.7 601 142 601C126.3 601 110.7 601 94.8 601C79 601 63 601 47.2 601C31.3 601 15.7 601 7.8 601L0 601Z" fill="#1b1b1e"></path></svg>