<svg id="visual" viewBox="0 0 900 600" width="900" height="600" xmlns="http://www.w3.org/2000/svg" xmlns:xlink="http://www.w3.org/1999/xlink" version="1.1"><rect x="0" y="0" width="900" height="600" fill="#1B1B1E"></rect><path d="M0 322L10 320.3C20 318.7 40 315.3 60 313.2C80 311 100 310 120 307.2C140 304.3 160 299.7 180 305.8C200 312 220 329 240 336.2C260 343.3 280 340.7 300 330.7C320 320.7 340 303.3 360 282.8C380 262.3 400 238.7 420 228.3C440 218 460 221 480 242.2C500 263.3 520 302.7 540 321.7C560 340.7 580 339.3 600 334.5C620 329.7 640 321.3 660 305.7C680 290 700 267 720 272.2C740 277.3 760 310.7 780 327.5C800 344.3 820 344.7 840 343.2C860 341.7 880 338.3 890 336.7L900 335L900 601L890 601C880 601 860 601 840 601C820 601 800 601 780 601C760 601 740 601 720 601C700 601 680 601 660 601C640 601 620 601 600 601C580 601 560 601 540 601C520 601 500 601 480 601C460 601 440 601 420 601C400 601 380 601 360 601C340 601 320 601 300 601C280 601 260 601 240 601C220 601 200 601 180 601C160 601 140 601 120 601C100 601 80 601 60 601C40 601 20 601 10 601L0 601Z" fill="#e74c3c"></path><path d="M0 348L10 337.8C20 327.7 40 307.3 60 295.8C80 284.3 100 281.7 120 275.3C140 269 160 259 180 269.8C200 280.7 220 312.3 240 333C260 353.7 280 363.3 300 353.8C320 344.3 340 315.7 360 310C380 304.3 400 321.7 420 323.2C440 324.7 460 310.3 480 303.7C500 297 520 298 540 299.7C560 301.3 580 303.7 600 295.8C620 288 640 270 660 279C680 288 700 324 720 324.2C740 324.3 760 288.7 780 271.3C800 254 820 255 840 274.8C860 294.7 880 333.3 890 352.7L900 372L900 601L890 601C880 601 860 601 840 601C820 601 800 601 780 601C760 601 740 601 720 601C700 601 680 601 660 601C640 601 620 601 600 601C580 601 560 601 540 601C520 601 500 601 480 601C460 601 440 601 420 601C400 601 380 601 360 601C340 601 320 601 300 601C280 601 260 601 240 601C220 601 200 601 180 601C160 601 140 601 120 601C100 601 80 601 60 601C40 601 20 601 10 601L0 601Z" fill="#d8404a"></path><path d="M0 370L10 370.2C20 370.3 40 370.7 60 357.7C80 344.7 100 318.3 120 313.8C140 309.3 160 326.7 180 340.7C200 354.7 220 365.3 240 364.2C260 363 280 350 300 336.3C320 322.7 340 308.3 360 310.3C380 312.3 400 330.7 420 338.5C440 346.3 460 343.7 480 348.5C500 353.3 520 365.7 540 366.7C560 367.7 580 357.3 600 355.7C620 354 640 361 660 353C680 345 700 322 720 312.2C740 302.3 760 305.7 780 314C800 322.3 820 335.7 840 348.5C860 361.3 880 373.7 890 379.8L900 386L900 601L890 601C880 601 860 601 840 601C820 601 800 601 780 601C760 601 740 601 720 601C700 601 680 601 660 601C640 601 620 601 600 601C580 601 560 601 540 601C520 601 500 601 480 601C460 601 440 601 420 601C400 601 380 601 360 601C340 601 320 601 300 601C280 601 260 601 240 601C220 601 200 601 180 601C160 601 140 601 120 601C100 601 80 601 60 601C40 601 20 601 10 601L0 601Z" fill="#c63954"></path><path d="M0 358L10 356.8C20 355.7 40 353.3 60 346.7C80 340 100 329 120 326.8C140 324.7 160 331.3 180 345.8C200 360.3 220 382.7 240 389.5C260 396.3 280 387.7 300 371.3C320 355 340 331 360 327.7C380 324.3 400 341.7 420 356.2C440 370.7 460 382.3 480 390.5C500 398.7 520 403.3 540 405.5C560 407.7 580 407.3 600 401.8C620 396.3 640 385.7 660 381.5C680 377.3 700 379.7 720 379.3C740 379 760 376 780 375.8C800 375.7 820 378.3 840 368C860 357.7 880 334.3 890 322.7L900 311L900 601L890 601C880 601 860 601 840 601C820 601 800 601 780 601C760 601 740 601 720 601C700 601 680 601 660 601C640 601 620 601 600 601C580 601 560 601 540 601C520 601 500 601 480 601C460 601 440 601 420 601C400 601 380 601 360 601C340 601 320 601 300 601C280 601 260 601 240 601C220 601 200 601 180 601C160 601 140 601 120 601C100 601 80 601 60 601C40 601 20 601 10 601L0 601Z" fill="#b2355b"></path><path d="M0 354L10 352.7C20 351.3 40 348.7 60 351C80 353.3 100 360.7 120 364.2C140 367.7 160 367.3 180 363.3C200 359.3 220 351.7 240 355C260 358.3 280 372.7 300 373.3C320 374 340 361 360 359.3C380 357.7 400 367.3 420 371.7C440 376 460 375 480 382C500 389 520 404 540 411.2C560 418.3 580 417.7 600 415.5C620 413.3 640 409.7 660 400.7C680 391.7 700 377.3 720 382C740 386.7 760 410.3 780 420.2C800 430 820 426 840 421.2C860 416.3 880 410.7 890 407.8L900 405L900 601L890 601C880 601 860 601 840 601C820 601 800 601 780 601C760 601 740 601 720 601C700 601 680 601 660 601C640 601 620 601 600 601C580 601 560 601 540 601C520 601 500 601 480 601C460 601 440 601 420 601C400 601 380 601 360 601C340 601 320 601 300 601C280 601 260 601 240 601C220 601 200 601 180 601C160 601 140 601 120 601C100 601 80 601 60 601C40 601 20 601 10 601L0 601Z" fill="#9c345e"></path><path d="M0 443L10 440.3C20 437.7 40 432.3 60 433.5C80 434.7 100 442.3 120 440.3C140 438.3 160 426.7 180 424C200 421.3 220 427.7 240 434.7C260 441.7 280 449.3 300 449.5C320 449.7 340 442.3 360 426.8C380 411.3 400 387.7 420 380.8C440 374 460 384 480 385.5C500 387 520 380 540 377C560 374 580 375 600 379.2C620 383.3 640 390.7 660 400.2C680 409.7 700 421.3 720 422.3C740 423.3 760 413.7 780 406.3C800 399 820 394 840 387C860 380 880 371 890 366.5L900 362L900 601L890 601C880 601 860 601 840 601C820 601 800 601 780 601C760 601 740 601 720 601C700 601 680 601 660 601C640 601 620 601 600 601C580 601 560 601 540 601C520 601 500 601 480 601C460 601 440 601 420 601C400 601 380 601 360 601C340 601 320 601 300 601C280 601 260 601 240 601C220 601 200 601 180 601C160 601 140 601 120 601C100 601 80 601 60 601C40 601 20 601 10 601L0 601Z" fill="#85335e"></path><path d="M0 450L10 445.8C20 441.7 40 433.3 60 423.8C80 414.3 100 403.7 120 402.7C140 401.7 160 410.3 180 418.5C200 426.7 220 434.3 240 443.3C260 452.3 280 462.7 300 463.7C320 464.7 340 456.3 360 445.5C380 434.7 400 421.3 420 423.5C440 425.7 460 443.3 480 449.8C500 456.3 520 451.7 540 446C560 440.3 580 433.7 600 425.3C620 417 640 407 660 403.8C680 400.7 700 404.3 720 405.8C740 407.3 760 406.7 780 415.3C800 424 820 442 840 443.7C860 445.3 880 430.7 890 423.3L900 416L900 601L890 601C880 601 860 601 840 601C820 601 800 601 780 601C760 601 740 601 720 601C700 601 680 601 660 601C640 601 620 601 600 601C580 601 560 601 540 601C520 601 500 601 480 601C460 601 440 601 420 601C400 601 380 601 360 601C340 601 320 601 300 601C280 601 260 601 240 601C220 601 200 601 180 601C160 601 140 601 120 601C100 601 80 601 60 601C40 601 20 601 10 601L0 601Z" fill="#6d325b"></path><path d="M0 501L10 489.5C20 478 40 455 60 443.5C80 432 100 432 120 444C140 456 160 480 180 488.3C200 496.7 220 489.3 240 489.3C260 489.3 280 496.7 300 494.5C320 492.3 340 480.7 360 479.8C380 479 400 489 420 487.2C440 485.3 460 471.7 480 469.8C500 468 520 478 540 483.8C560 489.7 580 491.3 600 485.8C620 480.3 640 467.7 660 466C680 464.3 700 473.7 720 472.7C740 471.7 760 460.3 780 459.2C800 458 820 467 840 462.8C860 458.7 880 441.3 890 432.7L900 424L900 601L890 601C880 601 860 601 840 601C820 601 800 601 780 601C760 601 740 601 720 601C700 601 680 601 660 601C640 601 620 601 600 601C580 601 560 601 540 601C520 601 500 601 480 601C460 601 440 601 420 601C400 601 380 601 360 601C340 601 320 601 300 601C280 601 260 601 240 601C220 601 200 601 180 601C160 601 140 601 120 601C100 601 80 601 60 601C40 601 20 601 10 601L0 601Z" fill="#573054"></path><path d="M0 508L10 509.3C20 510.7 40 513.3 60 508.7C80 504 100 492 120 493C140 494 160 508 180 515.2C200 522.3 220 522.7 240 512.2C260 501.7 280 480.3 300 474.2C320 468 340 477 360 477.7C380 478.3 400 470.7 420 467.7C440 464.7 460 466.3 480 469C500 471.7 520 475.3 540 474.2C560 473 580 467 600 464.8C620 462.7 640 464.3 660 465.7C680 467 700 468 720 476.5C740 485 760 501 780 505.7C800 510.3 820 503.7 840 496.5C860 489.3 880 481.7 890 477.8L900 474L900 601L890 601C880 601 860 601 840 601C820 601 800 601 780 601C760 601 740 601 720 601C700 601 680 601 660 601C640 601 620 601 600 601C580 601 560 601 540 601C520 601 500 601 480 601C460 601 440 601 420 601C400 601 380 601 360 601C340 601 320 601 300 601C280 601 260 601 240 601C220 601 200 601 180 601C160 601 140 601 120 601C100 601 80 601 60 601C40 601 20 601 10 601L0 601Z" fill="#432d49"></path><path d="M0 524L10 525.2C20 526.3 40 528.7 60 527C80 525.3 100 519.7 120 520.3C140 521 160 528 180 525.8C200 523.7 220 512.3 240 514.3C260 516.3 280 531.7 300 529C320 526.3 340 505.7 360 496C380 486.3 400 487.7 420 496.5C440 505.3 460 521.7 480 530.2C500 538.7 520 539.3 540 532C560 524.7 580 509.3 600 507.7C620 506 640 518 660 516.8C680 515.7 700 501.3 720 499.7C740 498 760 509 780 512.7C800 516.3 820 512.7 840 516.2C860 519.7 880 530.3 890 535.7L900 541L900 601L890 601C880 601 860 601 840 601C820 601 800 601 780 601C760 601 740 601 720 601C700 601 680 601 660 601C640 601 620 601 600 601C580 601 560 601 540 601C520 601 500 601 480 601C460 601 440 601 420 601C400 601 380 601 360 601C340 601 320 601 300 601C280 601 260 601 240 601C220 601 200 601 180 601C160 601 140 601 120 601C100 601 80 601 60 601C40 601 20 601 10 601L0 601Z" fill="#32283d"></path><path d="M0 566L10 562.2C20 558.3 40 550.7 60 542C80 533.3 100 523.7 120 519.7C140 515.7 160 517.3 180 523.8C200 530.3 220 541.7 240 542.5C260 543.3 280 533.7 300 531.2C320 528.7 340 533.3 360 535.2C380 537 400 536 420 540C440 544 460 553 480 550.8C500 548.7 520 535.3 540 532C560 528.7 580 535.3 600 540.5C620 545.7 640 549.3 660 549.3C680 549.3 700 545.7 720 542.3C740 539 760 536 780 539.2C800 542.3 820 551.7 840 555C860 558.3 880 555.7 890 554.3L900 553L900 601L890 601C880 601 860 601 840 601C820 601 800 601 780 601C760 601 740 601 720 601C700 601 680 601 660 601C640 601 620 601 600 601C580 601 560 601 540 601C520 601 500 601 480 601C460 601 440 601 420 601C400 601 380 601 360 601C340 601 320 601 300 601C280 601 260 601 240 601C220 601 200 601 180 601C160 601 140 601 120 601C100 601 80 601 60 601C40 601 20 601 10 601L0 601Z" fill="#25222e"></path><path d="M0 561L10 561.5C20 562 40 563 60 565C80 567 100 570 120 573.5C140 577 160 581 180 577.3C200 573.7 220 562.3 240 561.2C260 560 280 569 300 572.3C320 575.7 340 573.3 360 572.8C380 572.3 400 573.7 420 573.3C440 573 460 571 480 570.2C500 569.3 520 569.7 540 569.3C560 569 580 568 600 566C620 564 640 561 660 562.3C680 563.7 700 569.3 720 571.7C740 574 760 573 780 568.7C800 564.3 820 556.7 840 554.2C860 551.7 880 554.3 890 555.7L900 557L900 601L890 601C880 601 860 601 840 601C820 601 800 601 780 601C760 601 740 601 720 601C700 601 680 601 660 601C640 601 620 601 600 601C580 601 560 601 540 601C520 601 500 601 480 601C460 601 440 601 420 601C400 601 380 601 360 601C340 601 320 601 300 601C280 601 260 601 240 601C220 601 200 601 180 601C160 601 140 601 120 601C100 601 80 601 60 601C40 601 20 601 10 601L0 601Z" fill="#1b1b1e"></path></svg>