<svg id="visual" viewBox="0 0 960 350" width="960" height="350" xmlns="http://www.w3.org/2000/svg" xmlns:xlink="http://www.w3.org/1999/xlink" version="1.1"><rect x="0" y="0" width="960" height="350" fill="#A7233A"></rect><path d="M0 55L8.5 48.7C17 42.3 34 29.7 50.8 28.2C67.7 26.7 84.3 36.3 101.2 46C118 55.7 135 65.3 151.8 83C168.7 100.7 185.3 126.3 202.2 130.8C219 135.3 236 118.7 252.8 105.7C269.7 92.7 286.3 83.3 303.2 86.8C320 90.3 337 106.7 353.8 111.7C370.7 116.7 387.3 110.3 404.2 114C421 117.7 438 131.3 454.8 139.5C471.7 147.7 488.3 150.3 505.2 136.8C522 123.3 539 93.7 555.8 80.3C572.7 67 589.3 70 606.2 82.7C623 95.3 640 117.7 656.8 110.7C673.7 103.7 690.3 67.3 707.2 59.2C724 51 741 71 757.8 89.7C774.7 108.3 791.3 125.7 808.2 119.5C825 113.3 842 83.7 858.8 78.8C875.7 74 892.3 94 909.2 92.7C926 91.3 943 68.7 951.5 57.3L960 46L960 351L951.5 351C943 351 926 351 909.2 351C892.3 351 875.7 351 858.8 351C842 351 825 351 808.2 351C791.3 351 774.7 351 757.8 351C741 351 724 351 707.2 351C690.3 351 673.7 351 656.8 351C640 351 623 351 606.2 351C589.3 351 572.7 351 555.8 351C539 351 522 351 505.2 351C488.3 351 471.7 351 454.8 351C438 351 421 351 404.2 351C387.3 351 370.7 351 353.8 351C337 351 320 351 303.2 351C286.3 351 269.7 351 252.8 351C236 351 219 351 202.2 351C185.3 351 168.7 351 151.8 351C135 351 118 351 101.2 351C84.3 351 67.7 351 50.8 351C34 351 17 351 8.5 351L0 351Z" fill="#a7233a"></path><path d="M0 159L8.5 156.5C17 154 34 149 50.8 147.5C67.7 146 84.3 148 101.2 141.3C118 134.7 135 119.3 151.8 118.2C168.7 117 185.3 130 202.2 137.5C219 145 236 147 252.8 141.3C269.7 135.7 286.3 122.3 303.2 128.2C320 134 337 159 353.8 160.8C370.7 162.7 387.3 141.3 404.2 139.2C421 137 438 154 454.8 163C471.7 172 488.3 173 505.2 168.8C522 164.7 539 155.3 555.8 155.3C572.7 155.3 589.3 164.7 606.2 162.8C623 161 640 148 656.8 134.2C673.7 120.3 690.3 105.7 707.2 100.3C724 95 741 99 757.8 108.5C774.7 118 791.3 133 808.2 144.5C825 156 842 164 858.8 165.2C875.7 166.3 892.3 160.7 909.2 144.5C926 128.3 943 101.7 951.5 88.3L960 75L960 351L951.5 351C943 351 926 351 909.2 351C892.3 351 875.7 351 858.8 351C842 351 825 351 808.2 351C791.3 351 774.7 351 757.8 351C741 351 724 351 707.2 351C690.3 351 673.7 351 656.8 351C640 351 623 351 606.2 351C589.3 351 572.7 351 555.8 351C539 351 522 351 505.2 351C488.3 351 471.7 351 454.8 351C438 351 421 351 404.2 351C387.3 351 370.7 351 353.8 351C337 351 320 351 303.2 351C286.3 351 269.7 351 252.8 351C236 351 219 351 202.2 351C185.3 351 168.7 351 151.8 351C135 351 118 351 101.2 351C84.3 351 67.7 351 50.8 351C34 351 17 351 8.5 351L0 351Z" fill="#8a2249"></path><path d="M0 119L8.5 120.5C17 122 34 125 50.8 131C67.7 137 84.3 146 101.2 157.8C118 169.7 135 184.3 151.8 180.2C168.7 176 185.3 153 202.2 156.8C219 160.7 236 191.3 252.8 194.8C269.7 198.3 286.3 174.7 303.2 164.2C320 153.7 337 156.3 353.8 160.3C370.7 164.3 387.3 169.7 404.2 177.3C421 185 438 195 454.8 186.3C471.7 177.7 488.3 150.3 505.2 146.8C522 143.3 539 163.7 555.8 172C572.7 180.3 589.3 176.7 606.2 167C623 157.3 640 141.7 656.8 143.7C673.7 145.7 690.3 165.3 707.2 179.5C724 193.7 741 202.3 757.8 193.5C774.7 184.7 791.3 158.3 808.2 157.7C825 157 842 182 858.8 194C875.7 206 892.3 205 909.2 204C926 203 943 202 951.5 201.5L960 201L960 351L951.5 351C943 351 926 351 909.2 351C892.3 351 875.7 351 858.8 351C842 351 825 351 808.2 351C791.3 351 774.7 351 757.8 351C741 351 724 351 707.2 351C690.3 351 673.7 351 656.8 351C640 351 623 351 606.2 351C589.3 351 572.7 351 555.8 351C539 351 522 351 505.2 351C488.3 351 471.7 351 454.8 351C438 351 421 351 404.2 351C387.3 351 370.7 351 353.8 351C337 351 320 351 303.2 351C286.3 351 269.7 351 252.8 351C236 351 219 351 202.2 351C185.3 351 168.7 351 151.8 351C135 351 118 351 101.2 351C84.3 351 67.7 351 50.8 351C34 351 17 351 8.5 351L0 351Z" fill="#68264d"></path><path d="M0 264L8.5 256C17 248 34 232 50.8 231.8C67.7 231.7 84.3 247.3 101.2 253C118 258.7 135 254.3 151.8 251.8C168.7 249.3 185.3 248.7 202.2 240C219 231.3 236 214.7 252.8 201.8C269.7 189 286.3 180 303.2 177.3C320 174.7 337 178.3 353.8 188.7C370.7 199 387.3 216 404.2 219.3C421 222.7 438 212.3 454.8 209.2C471.7 206 488.3 210 505.2 207.3C522 204.7 539 195.3 555.8 190.8C572.7 186.3 589.3 186.7 606.2 198.2C623 209.7 640 232.3 656.8 241.5C673.7 250.7 690.3 246.3 707.2 238.8C724 231.3 741 220.7 757.8 216C774.7 211.3 791.3 212.7 808.2 213.8C825 215 842 216 858.8 219.3C875.7 222.7 892.3 228.3 909.2 230.2C926 232 943 230 951.5 229L960 228L960 351L951.5 351C943 351 926 351 909.2 351C892.3 351 875.7 351 858.8 351C842 351 825 351 808.2 351C791.3 351 774.7 351 757.8 351C741 351 724 351 707.2 351C690.3 351 673.7 351 656.8 351C640 351 623 351 606.2 351C589.3 351 572.7 351 555.8 351C539 351 522 351 505.2 351C488.3 351 471.7 351 454.8 351C438 351 421 351 404.2 351C387.3 351 370.7 351 353.8 351C337 351 320 351 303.2 351C286.3 351 269.7 351 252.8 351C236 351 219 351 202.2 351C185.3 351 168.7 351 151.8 351C135 351 118 351 101.2 351C84.3 351 67.7 351 50.8 351C34 351 17 351 8.5 351L0 351Z" fill="#472746"></path><path d="M0 268L8.5 272C17 276 34 284 50.8 286.5C67.7 289 84.3 286 101.2 274.2C118 262.3 135 241.7 151.8 233.3C168.7 225 185.3 229 202.2 229.8C219 230.7 236 228.3 252.8 231.5C269.7 234.7 286.3 243.3 303.2 243.5C320 243.7 337 235.3 353.8 238C370.7 240.7 387.3 254.3 404.2 264.5C421 274.7 438 281.3 454.8 283.2C471.7 285 488.3 282 505.2 271C522 260 539 241 555.8 239.8C572.7 238.7 589.3 255.3 606.2 259.8C623 264.3 640 256.7 656.8 253C673.7 249.3 690.3 249.7 707.2 248.2C724 246.7 741 243.3 757.8 248.2C774.7 253 791.3 266 808.2 272C825 278 842 277 858.8 265.8C875.7 254.7 892.3 233.3 909.2 230.5C926 227.7 943 243.3 951.5 251.2L960 259L960 351L951.5 351C943 351 926 351 909.2 351C892.3 351 875.7 351 858.8 351C842 351 825 351 808.2 351C791.3 351 774.7 351 757.8 351C741 351 724 351 707.2 351C690.3 351 673.7 351 656.8 351C640 351 623 351 606.2 351C589.3 351 572.7 351 555.8 351C539 351 522 351 505.2 351C488.3 351 471.7 351 454.8 351C438 351 421 351 404.2 351C387.3 351 370.7 351 353.8 351C337 351 320 351 303.2 351C286.3 351 269.7 351 252.8 351C236 351 219 351 202.2 351C185.3 351 168.7 351 151.8 351C135 351 118 351 101.2 351C84.3 351 67.7 351 50.8 351C34 351 17 351 8.5 351L0 351Z" fill="#2b2335"></path><path d="M0 335L8.5 333C17 331 34 327 50.8 325C67.7 323 84.3 323 101.2 312.7C118 302.3 135 281.7 151.8 284C168.7 286.3 185.3 311.7 202.2 323C219 334.3 236 331.7 252.8 327C269.7 322.3 286.3 315.7 303.2 309.3C320 303 337 297 353.8 295.2C370.7 293.3 387.3 295.7 404.2 295.5C421 295.3 438 292.7 454.8 295.2C471.7 297.7 488.3 305.3 505.2 311.3C522 317.3 539 321.7 555.8 325.8C572.7 330 589.3 334 606.2 335C623 336 640 334 656.8 329.2C673.7 324.3 690.3 316.7 707.2 317C724 317.3 741 325.7 757.8 330.5C774.7 335.3 791.3 336.7 808.2 327.3C825 318 842 298 858.8 296.5C875.7 295 892.3 312 909.2 312.2C926 312.3 943 295.7 951.5 287.3L960 279L960 351L951.5 351C943 351 926 351 909.2 351C892.3 351 875.7 351 858.8 351C842 351 825 351 808.2 351C791.3 351 774.7 351 757.8 351C741 351 724 351 707.2 351C690.3 351 673.7 351 656.8 351C640 351 623 351 606.2 351C589.3 351 572.7 351 555.8 351C539 351 522 351 505.2 351C488.3 351 471.7 351 454.8 351C438 351 421 351 404.2 351C387.3 351 370.7 351 353.8 351C337 351 320 351 303.2 351C286.3 351 269.7 351 252.8 351C236 351 219 351 202.2 351C185.3 351 168.7 351 151.8 351C135 351 118 351 101.2 351C84.3 351 67.7 351 50.8 351C34 351 17 351 8.5 351L0 351Z" fill="#1b1b1e"></path></svg>