<svg id="visual" viewBox="0 0 900 580" width="900" height="580" xmlns="http://www.w3.org/2000/svg" xmlns:xlink="http://www.w3.org/1999/xlink" version="1.1"><rect x="0" y="0" width="900" height="580" fill="#A7233A"></rect><path d="M0 410L8.3 401.7C16.7 393.3 33.3 376.7 50 357.8C66.7 339 83.3 318 100 321C116.7 324 133.3 351 150 365.8C166.7 380.7 183.3 383.3 200 372C216.7 360.7 233.3 335.3 250 322.7C266.7 310 283.3 310 300 309.7C316.7 309.3 333.3 308.7 350 316.8C366.7 325 383.3 342 400 366.8C416.7 391.7 433.3 424.3 450 440.2C466.7 456 483.3 455 500 440.3C516.7 425.7 533.3 397.3 550 397.7C566.7 398 583.3 427 600 420.3C616.7 413.7 633.3 371.3 650 354.5C666.7 337.7 683.3 346.3 700 350C716.7 353.7 733.3 352.3 750 370.7C766.7 389 783.3 427 800 430.8C816.7 434.7 833.3 404.3 850 394C866.7 383.7 883.3 393.3 891.7 398.2L900 403L900 581L891.7 581C883.3 581 866.7 581 850 581C833.3 581 816.7 581 800 581C783.3 581 766.7 581 750 581C733.3 581 716.7 581 700 581C683.3 581 666.7 581 650 581C633.3 581 616.7 581 600 581C583.3 581 566.7 581 550 581C533.3 581 516.7 581 500 581C483.3 581 466.7 581 450 581C433.3 581 416.7 581 400 581C383.3 581 366.7 581 350 581C333.3 581 316.7 581 300 581C283.3 581 266.7 581 250 581C233.3 581 216.7 581 200 581C183.3 581 166.7 581 150 581C133.3 581 116.7 581 100 581C83.3 581 66.7 581 50 581C33.3 581 16.7 581 8.3 581L0 581Z" fill="#a7233a"></path><path d="M0 467L8.3 467C16.7 467 33.3 467 50 456.2C66.7 445.3 83.3 423.7 100 420.2C116.7 416.7 133.3 431.3 150 441.5C166.7 451.7 183.3 457.3 200 437.8C216.7 418.3 233.3 373.7 250 376.2C266.7 378.7 283.3 428.3 300 434C316.7 439.7 333.3 401.3 350 398.3C366.7 395.3 383.3 427.7 400 421.8C416.7 416 433.3 372 450 369C466.7 366 483.3 404 500 414.8C516.7 425.7 533.3 409.3 550 401C566.7 392.7 583.3 392.3 600 406.3C616.7 420.3 633.3 448.7 650 455.3C666.7 462 683.3 447 700 427C716.7 407 733.3 382 750 382.3C766.7 382.7 783.3 408.3 800 422.5C816.7 436.7 833.3 439.3 850 431.5C866.7 423.7 883.3 405.3 891.7 396.2L900 387L900 581L891.7 581C883.3 581 866.7 581 850 581C833.3 581 816.7 581 800 581C783.3 581 766.7 581 750 581C733.3 581 716.7 581 700 581C683.3 581 666.7 581 650 581C633.3 581 616.7 581 600 581C583.3 581 566.7 581 550 581C533.3 581 516.7 581 500 581C483.3 581 466.7 581 450 581C433.3 581 416.7 581 400 581C383.3 581 366.7 581 350 581C333.3 581 316.7 581 300 581C283.3 581 266.7 581 250 581C233.3 581 216.7 581 200 581C183.3 581 166.7 581 150 581C133.3 581 116.7 581 100 581C83.3 581 66.7 581 50 581C33.3 581 16.7 581 8.3 581L0 581Z" fill="#982144"></path><path d="M0 485L8.3 483C16.7 481 33.3 477 50 479.5C66.7 482 83.3 491 100 485.7C116.7 480.3 133.3 460.7 150 457.8C166.7 455 183.3 469 200 459.8C216.7 450.7 233.3 418.3 250 404.2C266.7 390 283.3 394 300 395.8C316.7 397.7 333.3 397.3 350 404.8C366.7 412.3 383.3 427.7 400 442C416.7 456.3 433.3 469.7 450 470.8C466.7 472 483.3 461 500 457.7C516.7 454.3 533.3 458.7 550 462.2C566.7 465.7 583.3 468.3 600 462C616.7 455.7 633.3 440.3 650 440.7C666.7 441 683.3 457 700 446.5C716.7 436 733.3 399 750 388.7C766.7 378.3 783.3 394.7 800 415.7C816.7 436.7 833.3 462.3 850 468.3C866.7 474.3 883.3 460.7 891.7 453.8L900 447L900 581L891.7 581C883.3 581 866.7 581 850 581C833.3 581 816.7 581 800 581C783.3 581 766.7 581 750 581C733.3 581 716.7 581 700 581C683.3 581 666.7 581 650 581C633.3 581 616.7 581 600 581C583.3 581 566.7 581 550 581C533.3 581 516.7 581 500 581C483.3 581 466.7 581 450 581C433.3 581 416.7 581 400 581C383.3 581 366.7 581 350 581C333.3 581 316.7 581 300 581C283.3 581 266.7 581 250 581C233.3 581 216.7 581 200 581C183.3 581 166.7 581 150 581C133.3 581 116.7 581 100 581C83.3 581 66.7 581 50 581C33.3 581 16.7 581 8.3 581L0 581Z" fill="#86224a"></path><path d="M0 494L8.3 491C16.7 488 33.3 482 50 463C66.7 444 83.3 412 100 395.7C116.7 379.3 133.3 378.7 150 397.8C166.7 417 183.3 456 200 457.2C216.7 458.3 233.3 421.7 250 418.7C266.7 415.7 283.3 446.3 300 459C316.7 471.7 333.3 466.3 350 470.8C366.7 475.3 383.3 489.7 400 490.8C416.7 492 433.3 480 450 465.8C466.7 451.7 483.3 435.3 500 441.8C516.7 448.3 533.3 477.7 550 479.3C566.7 481 583.3 455 600 451C616.7 447 633.3 465 650 464.2C666.7 463.3 683.3 443.7 700 442.8C716.7 442 733.3 460 750 454C766.7 448 783.3 418 800 419.3C816.7 420.7 833.3 453.3 850 468.2C866.7 483 883.3 480 891.7 478.5L900 477L900 581L891.7 581C883.3 581 866.7 581 850 581C833.3 581 816.7 581 800 581C783.3 581 766.7 581 750 581C733.3 581 716.7 581 700 581C683.3 581 666.7 581 650 581C633.3 581 616.7 581 600 581C583.3 581 566.7 581 550 581C533.3 581 516.7 581 500 581C483.3 581 466.7 581 450 581C433.3 581 416.7 581 400 581C383.3 581 366.7 581 350 581C333.3 581 316.7 581 300 581C283.3 581 266.7 581 250 581C233.3 581 216.7 581 200 581C183.3 581 166.7 581 150 581C133.3 581 116.7 581 100 581C83.3 581 66.7 581 50 581C33.3 581 16.7 581 8.3 581L0 581Z" fill="#74254d"></path><path d="M0 452L8.3 456.3C16.7 460.7 33.3 469.3 50 463.5C66.7 457.7 83.3 437.3 100 429C116.7 420.7 133.3 424.3 150 424.7C166.7 425 183.3 422 200 436.8C216.7 451.7 233.3 484.3 250 485.5C266.7 486.7 283.3 456.3 300 454.7C316.7 453 333.3 480 350 479.8C366.7 479.7 383.3 452.3 400 451.3C416.7 450.3 433.3 475.7 450 486.3C466.7 497 483.3 493 500 492.7C516.7 492.3 533.3 495.7 550 492.5C566.7 489.3 583.3 479.7 600 474.7C616.7 469.7 633.3 469.3 650 470C666.7 470.7 683.3 472.3 700 473C716.7 473.7 733.3 473.3 750 473C766.7 472.7 783.3 472.3 800 461.7C816.7 451 833.3 430 850 428.7C866.7 427.3 883.3 445.7 891.7 454.8L900 464L900 581L891.7 581C883.3 581 866.7 581 850 581C833.3 581 816.7 581 800 581C783.3 581 766.7 581 750 581C733.3 581 716.7 581 700 581C683.3 581 666.7 581 650 581C633.3 581 616.7 581 600 581C583.3 581 566.7 581 550 581C533.3 581 516.7 581 500 581C483.3 581 466.7 581 450 581C433.3 581 416.7 581 400 581C383.3 581 366.7 581 350 581C333.3 581 316.7 581 300 581C283.3 581 266.7 581 250 581C233.3 581 216.7 581 200 581C183.3 581 166.7 581 150 581C133.3 581 116.7 581 100 581C83.3 581 66.7 581 50 581C33.3 581 16.7 581 8.3 581L0 581Z" fill="#60274d"></path><path d="M0 516L8.3 501.7C16.7 487.3 33.3 458.7 50 455.8C66.7 453 83.3 476 100 485.3C116.7 494.7 133.3 490.3 150 484.7C166.7 479 183.3 472 200 465C216.7 458 233.3 451 250 449.7C266.7 448.3 283.3 452.7 300 457.2C316.7 461.7 333.3 466.3 350 467.3C366.7 468.3 383.3 465.7 400 470.3C416.7 475 433.3 487 450 486.8C466.7 486.7 483.3 474.3 500 471.7C516.7 469 533.3 476 550 473.5C566.7 471 583.3 459 600 466.8C616.7 474.7 633.3 502.3 650 508.3C666.7 514.3 683.3 498.7 700 495.8C716.7 493 733.3 503 750 495.3C766.7 487.7 783.3 462.3 800 457C816.7 451.7 833.3 466.3 850 482C866.7 497.7 883.3 514.3 891.7 522.7L900 531L900 581L891.7 581C883.3 581 866.7 581 850 581C833.3 581 816.7 581 800 581C783.3 581 766.7 581 750 581C733.3 581 716.7 581 700 581C683.3 581 666.7 581 650 581C633.3 581 616.7 581 600 581C583.3 581 566.7 581 550 581C533.3 581 516.7 581 500 581C483.3 581 466.7 581 450 581C433.3 581 416.7 581 400 581C383.3 581 366.7 581 350 581C333.3 581 316.7 581 300 581C283.3 581 266.7 581 250 581C233.3 581 216.7 581 200 581C183.3 581 166.7 581 150 581C133.3 581 116.7 581 100 581C83.3 581 66.7 581 50 581C33.3 581 16.7 581 8.3 581L0 581Z" fill="#4e2749"></path><path d="M0 536L8.3 528.3C16.7 520.7 33.3 505.3 50 503.7C66.7 502 83.3 514 100 508.8C116.7 503.7 133.3 481.3 150 470C166.7 458.7 183.3 458.3 200 464.2C216.7 470 233.3 482 250 494.5C266.7 507 283.3 520 300 514C316.7 508 333.3 483 350 480.7C366.7 478.3 383.3 498.7 400 507.7C416.7 516.7 433.3 514.3 450 507.7C466.7 501 483.3 490 500 487.5C516.7 485 533.3 491 550 496.5C566.7 502 583.3 507 600 512.5C616.7 518 633.3 524 650 525.7C666.7 527.3 683.3 524.7 700 513C716.7 501.3 733.3 480.7 750 470C766.7 459.3 783.3 458.7 800 469.7C816.7 480.7 833.3 503.3 850 506.8C866.7 510.3 883.3 494.7 891.7 486.8L900 479L900 581L891.7 581C883.3 581 866.7 581 850 581C833.3 581 816.7 581 800 581C783.3 581 766.7 581 750 581C733.3 581 716.7 581 700 581C683.3 581 666.7 581 650 581C633.3 581 616.7 581 600 581C583.3 581 566.7 581 550 581C533.3 581 516.7 581 500 581C483.3 581 466.7 581 450 581C433.3 581 416.7 581 400 581C383.3 581 366.7 581 350 581C333.3 581 316.7 581 300 581C283.3 581 266.7 581 250 581C233.3 581 216.7 581 200 581C183.3 581 166.7 581 150 581C133.3 581 116.7 581 100 581C83.3 581 66.7 581 50 581C33.3 581 16.7 581 8.3 581L0 581Z" fill="#3c2641"></path><path d="M0 484L8.3 490C16.7 496 33.3 508 50 516.3C66.7 524.7 83.3 529.3 100 526.7C116.7 524 133.3 514 150 513.3C166.7 512.7 183.3 521.3 200 523.3C216.7 525.3 233.3 520.7 250 515.7C266.7 510.7 283.3 505.3 300 505.5C316.7 505.7 333.3 511.3 350 516.7C366.7 522 383.3 527 400 529C416.7 531 433.3 530 450 522.5C466.7 515 483.3 501 500 501.5C516.7 502 533.3 517 550 525.8C566.7 534.7 583.3 537.3 600 537C616.7 536.7 633.3 533.3 650 532.3C666.7 531.3 683.3 532.7 700 531.8C716.7 531 733.3 528 750 518.7C766.7 509.3 783.3 493.7 800 490.5C816.7 487.3 833.3 496.7 850 497.3C866.7 498 883.3 490 891.7 486L900 482L900 581L891.7 581C883.3 581 866.7 581 850 581C833.3 581 816.7 581 800 581C783.3 581 766.7 581 750 581C733.3 581 716.7 581 700 581C683.3 581 666.7 581 650 581C633.3 581 616.7 581 600 581C583.3 581 566.7 581 550 581C533.3 581 516.7 581 500 581C483.3 581 466.7 581 450 581C433.3 581 416.7 581 400 581C383.3 581 366.7 581 350 581C333.3 581 316.7 581 300 581C283.3 581 266.7 581 250 581C233.3 581 216.7 581 200 581C183.3 581 166.7 581 150 581C133.3 581 116.7 581 100 581C83.3 581 66.7 581 50 581C33.3 581 16.7 581 8.3 581L0 581Z" fill="#2e2437"></path><path d="M0 510L8.3 513.8C16.7 517.7 33.3 525.3 50 525.3C66.7 525.3 83.3 517.7 100 516.3C116.7 515 133.3 520 150 519.8C166.7 519.7 183.3 514.3 200 511.2C216.7 508 233.3 507 250 508.2C266.7 509.3 283.3 512.7 300 512.8C316.7 513 333.3 510 350 511.7C366.7 513.3 383.3 519.7 400 526.7C416.7 533.7 433.3 541.3 450 539.8C466.7 538.3 483.3 527.7 500 523.8C516.7 520 533.3 523 550 528.2C566.7 533.3 583.3 540.7 600 537.3C616.7 534 633.3 520 650 516.7C666.7 513.3 683.3 520.7 700 524C716.7 527.3 733.3 526.7 750 530.8C766.7 535 783.3 544 800 546C816.7 548 833.3 543 850 538.3C866.7 533.7 883.3 529.3 891.7 527.2L900 525L900 581L891.7 581C883.3 581 866.7 581 850 581C833.3 581 816.7 581 800 581C783.3 581 766.7 581 750 581C733.3 581 716.7 581 700 581C683.3 581 666.7 581 650 581C633.3 581 616.7 581 600 581C583.3 581 566.7 581 550 581C533.3 581 516.7 581 500 581C483.3 581 466.7 581 450 581C433.3 581 416.7 581 400 581C383.3 581 366.7 581 350 581C333.3 581 316.7 581 300 581C283.3 581 266.7 581 250 581C233.3 581 216.7 581 200 581C183.3 581 166.7 581 150 581C133.3 581 116.7 581 100 581C83.3 581 66.7 581 50 581C33.3 581 16.7 581 8.3 581L0 581Z" fill="#23202b"></path><path d="M0 560L8.3 558.5C16.7 557 33.3 554 50 552.7C66.7 551.3 83.3 551.7 100 553.5C116.7 555.3 133.3 558.7 150 558.7C166.7 558.7 183.3 555.3 200 553C216.7 550.7 233.3 549.3 250 545.3C266.7 541.3 283.3 534.7 300 535.7C316.7 536.7 333.3 545.3 350 547C366.7 548.7 383.3 543.3 400 540.7C416.7 538 433.3 538 450 539.2C466.7 540.3 483.3 542.7 500 545.3C516.7 548 533.3 551 550 550.2C566.7 549.3 583.3 544.7 600 545.8C616.7 547 633.3 554 650 553.7C666.7 553.3 683.3 545.7 700 544.8C716.7 544 733.3 550 750 553.3C766.7 556.7 783.3 557.3 800 555.7C816.7 554 833.3 550 850 550C866.7 550 883.3 554 891.7 556L900 558L900 581L891.7 581C883.3 581 866.7 581 850 581C833.3 581 816.7 581 800 581C783.3 581 766.7 581 750 581C733.3 581 716.7 581 700 581C683.3 581 666.7 581 650 581C633.3 581 616.7 581 600 581C583.3 581 566.7 581 550 581C533.3 581 516.7 581 500 581C483.3 581 466.7 581 450 581C433.3 581 416.7 581 400 581C383.3 581 366.7 581 350 581C333.3 581 316.7 581 300 581C283.3 581 266.7 581 250 581C233.3 581 216.7 581 200 581C183.3 581 166.7 581 150 581C133.3 581 116.7 581 100 581C83.3 581 66.7 581 50 581C33.3 581 16.7 581 8.3 581L0 581Z" fill="#1b1b1e"></path></svg>