<svg id="visual" viewBox="0 0 960 300" width="960" height="300" xmlns="http://www.w3.org/2000/svg" xmlns:xlink="http://www.w3.org/1999/xlink" version="1.1"><rect x="0" y="0" width="960" height="300" fill="#A7233A"></rect><path d="M0 47L8.5 41.7C17 36.3 34 25.7 50.8 24.3C67.7 23 84.3 31 101.2 39.2C118 47.3 135 55.7 151.8 70.8C168.7 86 185.3 108 202.2 112C219 116 236 102 252.8 90.8C269.7 79.7 286.3 71.3 303.2 74.3C320 77.3 337 91.7 353.8 96C370.7 100.3 387.3 94.7 404.2 97.7C421 100.7 438 112.3 454.8 119.3C471.7 126.3 488.3 128.7 505.2 117C522 105.3 539 79.7 555.8 68.2C572.7 56.7 589.3 59.3 606.2 70.3C623 81.3 640 100.7 656.8 94.8C673.7 89 690.3 58 707.2 51C724 44 741 61 757.8 76.8C774.7 92.7 791.3 107.3 808.2 102C825 96.7 842 71.3 858.8 67.3C875.7 63.3 892.3 80.7 909.2 79.5C926 78.3 943 58.7 951.5 48.8L960 39L960 301L951.5 301C943 301 926 301 909.2 301C892.3 301 875.7 301 858.8 301C842 301 825 301 808.2 301C791.3 301 774.7 301 757.8 301C741 301 724 301 707.2 301C690.3 301 673.7 301 656.8 301C640 301 623 301 606.2 301C589.3 301 572.7 301 555.8 301C539 301 522 301 505.2 301C488.3 301 471.7 301 454.8 301C438 301 421 301 404.2 301C387.3 301 370.7 301 353.8 301C337 301 320 301 303.2 301C286.3 301 269.7 301 252.8 301C236 301 219 301 202.2 301C185.3 301 168.7 301 151.8 301C135 301 118 301 101.2 301C84.3 301 67.7 301 50.8 301C34 301 17 301 8.5 301L0 301Z" fill="#a7233a"></path><path d="M0 136L8.5 133.8C17 131.7 34 127.3 50.8 126.2C67.7 125 84.3 127 101.2 121.3C118 115.7 135 102.3 151.8 101.2C168.7 100 185.3 111 202.2 117.5C219 124 236 126 252.8 121.2C269.7 116.3 286.3 104.7 303.2 109.7C320 114.7 337 136.3 353.8 137.8C370.7 139.3 387.3 120.7 404.2 118.7C421 116.7 438 131.3 454.8 139.2C471.7 147 488.3 148 505.2 144.5C522 141 539 133 555.8 133C572.7 133 589.3 141 606.2 139.5C623 138 640 127 656.8 115.2C673.7 103.3 690.3 90.7 707.2 86C724 81.3 741 84.7 757.8 92.7C774.7 100.7 791.3 113.3 808.2 123.3C825 133.3 842 140.7 858.8 141.8C875.7 143 892.3 138 909.2 124C926 110 943 87 951.5 75.5L960 64L960 301L951.5 301C943 301 926 301 909.2 301C892.3 301 875.7 301 858.8 301C842 301 825 301 808.2 301C791.3 301 774.7 301 757.8 301C741 301 724 301 707.2 301C690.3 301 673.7 301 656.8 301C640 301 623 301 606.2 301C589.3 301 572.7 301 555.8 301C539 301 522 301 505.2 301C488.3 301 471.7 301 454.8 301C438 301 421 301 404.2 301C387.3 301 370.7 301 353.8 301C337 301 320 301 303.2 301C286.3 301 269.7 301 252.8 301C236 301 219 301 202.2 301C185.3 301 168.7 301 151.8 301C135 301 118 301 101.2 301C84.3 301 67.7 301 50.8 301C34 301 17 301 8.5 301L0 301Z" fill="#8a2249"></path><path d="M0 102L8.5 103.3C17 104.7 34 107.3 50.8 112.5C67.7 117.7 84.3 125.3 101.2 135.3C118 145.3 135 157.7 151.8 154C168.7 150.3 185.3 130.7 202.2 134C219 137.3 236 163.7 252.8 166.7C269.7 169.7 286.3 149.3 303.2 140.3C320 131.3 337 133.7 353.8 137.2C370.7 140.7 387.3 145.3 404.2 152C421 158.7 438 167.3 454.8 160C471.7 152.7 488.3 129.3 505.2 126.3C522 123.3 539 140.7 555.8 147.7C572.7 154.7 589.3 151.3 606.2 143C623 134.7 640 121.3 656.8 123C673.7 124.7 690.3 141.3 707.2 153.5C724 165.7 741 173.3 757.8 165.8C774.7 158.3 791.3 135.7 808.2 135C825 134.3 842 155.7 858.8 166C875.7 176.3 892.3 175.7 909.2 174.8C926 174 943 173 951.5 172.5L960 172L960 301L951.5 301C943 301 926 301 909.2 301C892.3 301 875.7 301 858.8 301C842 301 825 301 808.2 301C791.3 301 774.7 301 757.8 301C741 301 724 301 707.2 301C690.3 301 673.7 301 656.8 301C640 301 623 301 606.2 301C589.3 301 572.7 301 555.8 301C539 301 522 301 505.2 301C488.3 301 471.7 301 454.8 301C438 301 421 301 404.2 301C387.3 301 370.7 301 353.8 301C337 301 320 301 303.2 301C286.3 301 269.7 301 252.8 301C236 301 219 301 202.2 301C185.3 301 168.7 301 151.8 301C135 301 118 301 101.2 301C84.3 301 67.7 301 50.8 301C34 301 17 301 8.5 301L0 301Z" fill="#68264d"></path><path d="M0 226L8.5 219.2C17 212.3 34 198.7 50.8 198.5C67.7 198.3 84.3 211.7 101.2 216.5C118 221.3 135 217.7 151.8 215.7C168.7 213.7 185.3 213.3 202.2 206C219 198.7 236 184.3 252.8 173.3C269.7 162.3 286.3 154.7 303.2 152.3C320 150 337 153 353.8 161.8C370.7 170.7 387.3 185.3 404.2 188.2C421 191 438 182 454.8 179.3C471.7 176.7 488.3 180.3 505.2 178C522 175.7 539 167.3 555.8 163.3C572.7 159.3 589.3 159.7 606.2 169.5C623 179.3 640 198.7 656.8 206.7C673.7 214.7 690.3 211.3 707.2 205C724 198.7 741 189.3 757.8 185.3C774.7 181.3 791.3 182.7 808.2 183.7C825 184.7 842 185.3 858.8 188C875.7 190.7 892.3 195.3 909.2 197C926 198.7 943 197.3 951.5 196.7L960 196L960 301L951.5 301C943 301 926 301 909.2 301C892.3 301 875.7 301 858.8 301C842 301 825 301 808.2 301C791.3 301 774.7 301 757.8 301C741 301 724 301 707.2 301C690.3 301 673.7 301 656.8 301C640 301 623 301 606.2 301C589.3 301 572.7 301 555.8 301C539 301 522 301 505.2 301C488.3 301 471.7 301 454.8 301C438 301 421 301 404.2 301C387.3 301 370.7 301 353.8 301C337 301 320 301 303.2 301C286.3 301 269.7 301 252.8 301C236 301 219 301 202.2 301C185.3 301 168.7 301 151.8 301C135 301 118 301 101.2 301C84.3 301 67.7 301 50.8 301C34 301 17 301 8.5 301L0 301Z" fill="#472746"></path><path d="M0 229L8.5 232.7C17 236.3 34 243.7 50.8 245.8C67.7 248 84.3 245 101.2 234.7C118 224.3 135 206.7 151.8 199.7C168.7 192.7 185.3 196.3 202.2 197.2C219 198 236 196 252.8 198.7C269.7 201.3 286.3 208.7 303.2 208.7C320 208.7 337 201.3 353.8 203.7C370.7 206 387.3 218 404.2 226.8C421 235.7 438 241.3 454.8 242.8C471.7 244.3 488.3 241.7 505.2 232.3C522 223 539 207 555.8 206C572.7 205 589.3 219 606.2 222.7C623 226.3 640 219.7 656.8 216.5C673.7 213.3 690.3 213.7 707.2 212.5C724 211.3 741 208.7 757.8 212.8C774.7 217 791.3 228 808.2 233C825 238 842 237 858.8 227.3C875.7 217.7 892.3 199.3 909.2 197C926 194.7 943 208.3 951.5 215.2L960 222L960 301L951.5 301C943 301 926 301 909.2 301C892.3 301 875.7 301 858.8 301C842 301 825 301 808.2 301C791.3 301 774.7 301 757.8 301C741 301 724 301 707.2 301C690.3 301 673.7 301 656.8 301C640 301 623 301 606.2 301C589.3 301 572.7 301 555.8 301C539 301 522 301 505.2 301C488.3 301 471.7 301 454.8 301C438 301 421 301 404.2 301C387.3 301 370.7 301 353.8 301C337 301 320 301 303.2 301C286.3 301 269.7 301 252.8 301C236 301 219 301 202.2 301C185.3 301 168.7 301 151.8 301C135 301 118 301 101.2 301C84.3 301 67.7 301 50.8 301C34 301 17 301 8.5 301L0 301Z" fill="#2b2335"></path><path d="M0 287L8.5 285.3C17 283.7 34 280.3 50.8 278.7C67.7 277 84.3 277 101.2 268.2C118 259.3 135 241.7 151.8 243.7C168.7 245.7 185.3 267.3 202.2 277C219 286.7 236 284.3 252.8 280.3C269.7 276.3 286.3 270.7 303.2 265.2C320 259.7 337 254.3 353.8 252.8C370.7 251.3 387.3 253.7 404.2 253.7C421 253.7 438 251.3 454.8 253.3C471.7 255.3 488.3 261.7 505.2 266.8C522 272 539 276 555.8 279.7C572.7 283.3 589.3 286.7 606.2 287.3C623 288 640 286 656.8 281.8C673.7 277.7 690.3 271.3 707.2 271.7C724 272 741 279 757.8 283.2C774.7 287.3 791.3 288.7 808.2 280.7C825 272.7 842 255.3 858.8 254C875.7 252.7 892.3 267.3 909.2 267.5C926 267.7 943 253.3 951.5 246.2L960 239L960 301L951.5 301C943 301 926 301 909.2 301C892.3 301 875.7 301 858.8 301C842 301 825 301 808.2 301C791.3 301 774.7 301 757.8 301C741 301 724 301 707.2 301C690.3 301 673.7 301 656.8 301C640 301 623 301 606.2 301C589.3 301 572.7 301 555.8 301C539 301 522 301 505.2 301C488.3 301 471.7 301 454.8 301C438 301 421 301 404.2 301C387.3 301 370.7 301 353.8 301C337 301 320 301 303.2 301C286.3 301 269.7 301 252.8 301C236 301 219 301 202.2 301C185.3 301 168.7 301 151.8 301C135 301 118 301 101.2 301C84.3 301 67.7 301 50.8 301C34 301 17 301 8.5 301L0 301Z" fill="#1b1b1e"></path></svg>